<svg width="178" height="52" viewBox="0 0 178 52" fill="none" xmlns="http://www.w3.org/2000/svg">
<path d="M6.32 20.18C5.81333 20.18 5.42667 20.04 5.16 19.76C4.89333 19.48 4.76 19.08 4.76 18.56V12.76L5.4 14.54L0.68 7.84C0.493333 7.56 0.413333 7.26 0.44 6.94C0.466667 6.60667 0.6 6.32 0.84 6.08C1.08 5.84 1.42 5.72 1.86 5.72C2.18 5.72 2.46667 5.8 2.72 5.96C2.98667 6.12 3.24 6.37333 3.48 6.72L6.68 11.34H6.04L9.24 6.72C9.49333 6.36 9.74 6.10667 9.98 5.96C10.2333 5.8 10.5267 5.72 10.86 5.72C11.2867 5.72 11.62 5.83333 11.86 6.06C12.1 6.27333 12.2267 6.54667 12.24 6.88C12.2533 7.2 12.14 7.53333 11.9 7.88L7.24 14.54L7.86 12.76V18.56C7.86 19.64 7.34667 20.18 6.32 20.18ZM15.5972 20.18C15.0905 20.18 14.7039 20.04 14.4372 19.76C14.1705 19.48 14.0372 19.0867 14.0372 18.58V7.32C14.0372 6.81333 14.1705 6.42 14.4372 6.14C14.7039 5.86 15.0905 5.72 15.5972 5.72C16.0905 5.72 16.4705 5.86 16.7372 6.14C17.0039 6.42 17.1372 6.81333 17.1372 7.32V11.56H23.6972V7.32C23.6972 6.81333 23.8305 6.42 24.0972 6.14C24.3639 5.86 24.7439 5.72 25.2372 5.72C25.7439 5.72 26.1305 5.86 26.3972 6.14C26.6639 6.42 26.7972 6.81333 26.7972 7.32V18.58C26.7972 19.0867 26.6639 19.48 26.3972 19.76C26.1305 20.04 25.7439 20.18 25.2372 20.18C24.7439 20.18 24.3639 20.04 24.0972 19.76C23.8305 19.48 23.6972 19.0867 23.6972 18.58V14.14H17.1372V18.58C17.1372 19.0867 17.0039 19.48 16.7372 19.76C16.4839 20.04 16.1039 20.18 15.5972 20.18ZM29.8427 23.56C29.3893 23.56 29.0427 23.44 28.8027 23.2C28.576 22.9733 28.4627 22.6333 28.4627 22.18V18.96C28.4627 18.0267 28.936 17.56 29.8827 17.56H31.1627L29.4427 18.02C30.1893 17.3267 30.7427 16.2867 31.1027 14.9C31.476 13.5133 31.6627 11.7533 31.6627 9.62V7.52C31.6627 7 31.8027 6.6 32.0827 6.32C32.3627 6.04 32.7693 5.9 33.3027 5.9H40.3827C40.9027 5.9 41.3027 6.04 41.5827 6.32C41.8627 6.6 42.0027 7 42.0027 7.52V18.7L40.8627 17.56H42.6027C43.056 17.56 43.4027 17.68 43.6427 17.92C43.8827 18.16 44.0027 18.5067 44.0027 18.96V22.18C44.0027 23.1 43.556 23.56 42.6627 23.56C42.2227 23.56 41.8827 23.44 41.6427 23.2C41.4027 22.9733 41.2827 22.6333 41.2827 22.18V20H31.2027V22.18C31.2027 23.1 30.7493 23.56 29.8427 23.56ZM33.0027 17.56H38.8827V8.32H34.5227V9.92C34.5227 11.7067 34.396 13.2267 34.1427 14.48C33.8893 15.72 33.5093 16.7467 33.0027 17.56ZM49.8536 20.22C49.1603 20.22 48.4736 20.1333 47.7936 19.96C47.1269 19.7733 46.5136 19.52 45.9536 19.2C45.6469 19.0267 45.4336 18.8067 45.3136 18.54C45.1936 18.2733 45.1469 18 45.1736 17.72C45.2003 17.44 45.2936 17.1933 45.4536 16.98C45.6269 16.7667 45.8469 16.6333 46.1136 16.58C46.3936 16.5267 46.7069 16.5867 47.0536 16.76C47.4936 17.0133 47.9336 17.2 48.3736 17.32C48.8269 17.4267 49.2869 17.48 49.7536 17.48C50.5669 17.48 51.2669 17.3267 51.8536 17.02C52.4536 16.7133 52.9203 16.26 53.2536 15.66C53.6003 15.0467 53.8003 14.2933 53.8536 13.4L54.7336 14.04H48.9336C48.5203 14.04 48.2003 13.9533 47.9736 13.78C47.7603 13.5933 47.6536 13.3 47.6536 12.9C47.6536 12.5133 47.7603 12.2 47.9736 11.96C48.2003 11.72 48.5203 11.6 48.9336 11.6H54.7336L53.8536 12.46C53.7869 11.5667 53.5869 10.8267 53.2536 10.24C52.9336 9.64 52.4803 9.18667 51.8936 8.88C51.3203 8.57333 50.6336 8.42 49.8336 8.42C49.3669 8.42 48.9003 8.48 48.4336 8.6C47.9803 8.72 47.5469 8.89333 47.1336 9.12C46.7869 9.30667 46.4736 9.38 46.1936 9.34C45.9136 9.28667 45.6803 9.16 45.4936 8.96C45.3203 8.76 45.2069 8.52667 45.1536 8.26C45.1136 7.98 45.1536 7.70667 45.2736 7.44C45.3936 7.17333 45.6069 6.95333 45.9136 6.78C46.5136 6.42 47.1669 6.14667 47.8736 5.96C48.5936 5.77333 49.3003 5.68 49.9936 5.68C51.4869 5.68 52.7603 5.98667 53.8136 6.6C54.8803 7.2 55.6936 8.04 56.2536 9.12C56.8269 10.2 57.1136 11.4733 57.1136 12.94C57.1136 14.0467 56.9469 15.0467 56.6136 15.94C56.2803 16.8333 55.8003 17.6 55.1736 18.24C54.5603 18.8667 53.8069 19.3533 52.9136 19.7C52.0203 20.0467 51.0003 20.22 49.8536 20.22ZM66.3655 20.22C64.8455 20.22 63.5455 19.92 62.4655 19.32C61.3855 18.72 60.5521 17.88 59.9655 16.8C59.3921 15.7067 59.1055 14.42 59.1055 12.94C59.1055 11.8333 59.2655 10.84 59.5855 9.96C59.9188 9.06667 60.3988 8.30667 61.0255 7.68C61.6521 7.04 62.4121 6.54667 63.3055 6.2C64.2121 5.85333 65.2321 5.68 66.3655 5.68C67.0321 5.68 67.7055 5.76667 68.3855 5.94C69.0788 6.1 69.6788 6.33333 70.1855 6.64C70.5188 6.82667 70.7455 7.06 70.8655 7.34C70.9855 7.62 71.0188 7.9 70.9655 8.18C70.9255 8.46 70.8121 8.7 70.6255 8.9C70.4521 9.1 70.2321 9.22667 69.9655 9.28C69.6988 9.33333 69.3988 9.27333 69.0655 9.1C68.6655 8.86 68.2455 8.68667 67.8055 8.58C67.3655 8.47333 66.9188 8.42 66.4655 8.42C65.5721 8.42 64.8188 8.6 64.2055 8.96C63.6055 9.30667 63.1521 9.81333 62.8455 10.48C62.5388 11.1467 62.3855 11.9667 62.3855 12.94C62.3855 13.9 62.5388 14.72 62.8455 15.4C63.1521 16.08 63.6055 16.6 64.2055 16.96C64.8188 17.3067 65.5721 17.48 66.4655 17.48C66.8921 17.48 67.3255 17.4267 67.7655 17.32C68.2188 17.2133 68.6521 17.0467 69.0655 16.82C69.4121 16.6467 69.7188 16.5867 69.9855 16.64C70.2655 16.68 70.4921 16.8 70.6655 17C70.8521 17.1867 70.9655 17.4133 71.0055 17.68C71.0588 17.9467 71.0321 18.2133 70.9255 18.48C70.8188 18.7467 70.6188 18.9733 70.3255 19.16C69.8321 19.4933 69.2255 19.7533 68.5055 19.94C67.7855 20.1267 67.0721 20.22 66.3655 20.22ZM74.7573 20.18C74.2507 20.18 73.864 20.04 73.5973 19.76C73.3307 19.48 73.1973 19.0867 73.1973 18.58V7.32C73.1973 6.81333 73.3307 6.42 73.5973 6.14C73.864 5.86 74.2507 5.72 74.7573 5.72C75.2507 5.72 75.6307 5.86 75.8973 6.14C76.164 6.42 76.2973 6.81333 76.2973 7.32V11.56H82.8573V7.32C82.8573 6.81333 82.9907 6.42 83.2573 6.14C83.524 5.86 83.904 5.72 84.3973 5.72C84.904 5.72 85.2907 5.86 85.5573 6.14C85.824 6.42 85.9573 6.81333 85.9573 7.32V18.58C85.9573 19.0867 85.824 19.48 85.5573 19.76C85.2907 20.04 84.904 20.18 84.3973 20.18C83.904 20.18 83.524 20.04 83.2573 19.76C82.9907 19.48 82.8573 19.0867 82.8573 18.58V14.14H76.2973V18.58C76.2973 19.0867 76.164 19.48 75.8973 19.76C75.644 20.04 75.264 20.18 74.7573 20.18ZM90.1228 20.18C89.9228 20.18 89.7361 20.1467 89.5628 20.08C89.4028 20.0133 89.2628 19.9133 89.1428 19.78C89.0361 19.6467 88.9495 19.4867 88.8828 19.3C88.8295 19.1 88.8028 18.8733 88.8028 18.62V7.2C88.8028 6.73333 88.9228 6.37333 89.1628 6.12C89.4161 5.85333 89.7761 5.72 90.2428 5.72C90.7228 5.72 91.0828 5.85333 91.3228 6.12C91.5628 6.37333 91.6828 6.73333 91.6828 7.2V15.56H91.1828L98.1628 6.62C98.4028 6.3 98.6361 6.07333 98.8628 5.94C99.0895 5.79333 99.3895 5.72 99.7628 5.72C100.016 5.72 100.236 5.78 100.423 5.9C100.609 6.02 100.756 6.18667 100.863 6.4C100.969 6.61333 101.023 6.86 101.023 7.14V18.68C101.023 19.16 100.896 19.5333 100.643 19.8C100.403 20.0533 100.049 20.18 99.5828 20.18C99.1161 20.18 98.7561 20.0533 98.5028 19.8C98.2628 19.5333 98.1428 19.16 98.1428 18.68V10.32H98.6228L91.6628 19.26C91.4095 19.58 91.1761 19.8133 90.9628 19.96C90.7628 20.1067 90.4828 20.18 90.1228 20.18ZM105.181 20.18C104.981 20.18 104.795 20.1467 104.621 20.08C104.461 20.0133 104.321 19.9133 104.201 19.78C104.095 19.6467 104.008 19.4867 103.941 19.3C103.888 19.1 103.861 18.8733 103.861 18.62V7.2C103.861 6.73333 103.981 6.37333 104.221 6.12C104.475 5.85333 104.835 5.72 105.301 5.72C105.781 5.72 106.141 5.85333 106.381 6.12C106.621 6.37333 106.741 6.73333 106.741 7.2V15.56H106.241L113.221 6.62C113.461 6.3 113.695 6.07333 113.921 5.94C114.148 5.79333 114.448 5.72 114.821 5.72C115.075 5.72 115.295 5.78 115.481 5.9C115.668 6.02 115.815 6.18667 115.921 6.4C116.028 6.61333 116.081 6.86 116.081 7.14V18.68C116.081 19.16 115.955 19.5333 115.701 19.8C115.461 20.0533 115.108 20.18 114.641 20.18C114.175 20.18 113.815 20.0533 113.561 19.8C113.321 19.5333 113.201 19.16 113.201 18.68V10.32H113.681L106.721 19.26C106.468 19.58 106.235 19.8133 106.021 19.96C105.821 20.1067 105.541 20.18 105.181 20.18ZM109.961 4.8C108.975 4.8 108.155 4.6 107.501 4.2C106.861 3.8 106.395 3.26667 106.101 2.6C105.968 2.32 105.955 2.08667 106.061 1.9C106.168 1.7 106.335 1.56 106.561 1.48C106.801 1.4 107.001 1.41333 107.161 1.52C107.335 1.61333 107.508 1.78667 107.681 2.04C107.908 2.42667 108.208 2.72 108.581 2.92C108.968 3.10667 109.435 3.2 109.981 3.2C110.528 3.2 110.988 3.10667 111.361 2.92C111.748 2.72 112.055 2.42667 112.281 2.04C112.455 1.78667 112.621 1.61333 112.781 1.52C112.955 1.41333 113.161 1.4 113.401 1.48C113.628 1.56 113.788 1.69333 113.881 1.88C113.988 2.06667 113.975 2.30667 113.841 2.6C113.521 3.26667 113.035 3.8 112.381 4.2C111.741 4.6 110.935 4.8 109.961 4.8Z" fill="#67748E"/>
<path d="M8.26 46.22C6.74 46.22 5.44 45.92 4.36 45.32C3.28 44.72 2.44667 43.88 1.86 42.8C1.28667 41.7067 1 40.42 1 38.94C1 37.8333 1.16 36.84 1.48 35.96C1.81333 35.0667 2.29333 34.3067 2.92 33.68C3.54667 33.04 4.30667 32.5467 5.2 32.2C6.10667 31.8533 7.12667 31.68 8.26 31.68C8.92667 31.68 9.6 31.7667 10.28 31.94C10.9733 32.1 11.5733 32.3333 12.08 32.64C12.4133 32.8267 12.64 33.06 12.76 33.34C12.88 33.62 12.9133 33.9 12.86 34.18C12.82 34.46 12.7067 34.7 12.52 34.9C12.3467 35.1 12.1267 35.2267 11.86 35.28C11.5933 35.3333 11.2933 35.2733 10.96 35.1C10.56 34.86 10.14 34.6867 9.7 34.58C9.26 34.4733 8.81333 34.42 8.36 34.42C7.46667 34.42 6.71333 34.6 6.1 34.96C5.5 35.3067 5.04667 35.8133 4.74 36.48C4.43333 37.1467 4.28 37.9667 4.28 38.94C4.28 39.9 4.43333 40.72 4.74 41.4C5.04667 42.08 5.5 42.6 6.1 42.96C6.71333 43.3067 7.46667 43.48 8.36 43.48C8.78667 43.48 9.22 43.4267 9.66 43.32C10.1133 43.2133 10.5467 43.0467 10.96 42.82C11.3067 42.6467 11.6133 42.5867 11.88 42.64C12.16 42.68 12.3867 42.8 12.56 43C12.7467 43.1867 12.86 43.4133 12.9 43.68C12.9533 43.9467 12.9267 44.2133 12.82 44.48C12.7133 44.7467 12.5133 44.9733 12.22 45.16C11.7267 45.4933 11.12 45.7533 10.4 45.94C9.68 46.1267 8.96667 46.22 8.26 46.22ZM19.2119 46.18C18.8519 46.18 18.5452 46.0867 18.2919 45.9C18.0385 45.7133 17.8852 45.4667 17.8319 45.16C17.7785 44.84 17.8519 44.48 18.0519 44.08L19.5119 41.22V42.12L14.3719 33.76C14.1585 33.4133 14.0719 33.0867 14.1119 32.78C14.1652 32.46 14.3185 32.2067 14.5719 32.02C14.8252 31.82 15.1519 31.72 15.5519 31.72C15.9519 31.72 16.2585 31.82 16.4719 32.02C16.6852 32.22 16.8985 32.5 17.1119 32.86L21.0119 39.36H20.4719L23.7519 32.88C23.9119 32.5867 24.0985 32.32 24.3119 32.08C24.5385 31.84 24.8719 31.72 25.3119 31.72C25.6852 31.72 25.9919 31.8133 26.2319 32C26.4852 32.1733 26.6452 32.42 26.7119 32.74C26.7785 33.0467 26.6985 33.4067 26.4719 33.82L20.7919 45.02C20.6452 45.3133 20.4585 45.58 20.2319 45.82C20.0052 46.06 19.6652 46.18 19.2119 46.18ZM27.5184 49.56C27.0651 49.56 26.7184 49.44 26.4784 49.2C26.2518 48.9733 26.1384 48.6333 26.1384 48.18V44.96C26.1384 44.0267 26.6118 43.56 27.5584 43.56H28.8384L27.1184 44.02C27.8651 43.3267 28.4184 42.2867 28.7784 40.9C29.1518 39.5133 29.3384 37.7533 29.3384 35.62V33.52C29.3384 33 29.4784 32.6 29.7584 32.32C30.0384 32.04 30.4451 31.9 30.9784 31.9H38.0584C38.5784 31.9 38.9784 32.04 39.2584 32.32C39.5384 32.6 39.6784 33 39.6784 33.52V44.7L38.5384 43.56H40.2784C40.7318 43.56 41.0784 43.68 41.3184 43.92C41.5584 44.16 41.6784 44.5067 41.6784 44.96V48.18C41.6784 49.1 41.2318 49.56 40.3384 49.56C39.8984 49.56 39.5584 49.44 39.3184 49.2C39.0784 48.9733 38.9584 48.6333 38.9584 48.18V46H28.8784V48.18C28.8784 49.1 28.4251 49.56 27.5184 49.56ZM30.6784 43.56H36.5584V34.32H32.1984V35.92C32.1984 37.7067 32.0718 39.2267 31.8184 40.48C31.5651 41.72 31.1851 42.7467 30.6784 43.56ZM43.9294 46.18C43.556 46.18 43.2494 46.0933 43.0094 45.92C42.7827 45.7467 42.636 45.5133 42.5694 45.22C42.516 44.9267 42.576 44.6 42.7494 44.24L47.8694 33.02C48.0827 32.5667 48.336 32.24 48.6294 32.04C48.9227 31.8267 49.2627 31.72 49.6494 31.72C50.036 31.72 50.376 31.8267 50.6694 32.04C50.9627 32.24 51.2094 32.5667 51.4094 33.02L56.5694 44.24C56.7427 44.6 56.8027 44.9333 56.7494 45.24C56.7094 45.5333 56.576 45.7667 56.3494 45.94C56.1227 46.1 55.8294 46.18 55.4694 46.18C55.016 46.18 54.6627 46.0733 54.4094 45.86C54.1694 45.6467 53.956 45.3133 53.7694 44.86L52.5694 42.08L53.8094 42.94H45.4694L46.7094 42.08L45.5294 44.86C45.3294 45.3267 45.116 45.6667 44.8894 45.88C44.676 46.08 44.356 46.18 43.9294 46.18ZM49.6094 35.2L47.0494 41.3L46.5094 40.52H52.7694L52.2294 41.3L49.6494 35.2H49.6094ZM69.368 46.18C68.8613 46.18 68.4746 46.04 68.208 45.76C67.9413 45.48 67.808 45.0867 67.808 44.58V34.46H63.448V37.02C63.448 38.14 63.368 39.1533 63.208 40.06C63.048 40.9667 62.8146 41.7867 62.508 42.52C62.2013 43.24 61.8213 43.88 61.368 44.44C60.928 45 60.4213 45.48 59.848 45.88C59.5013 46.1333 59.1413 46.2267 58.768 46.16C58.408 46.1067 58.0946 45.9067 57.828 45.56C57.5613 45.2 57.468 44.8467 57.548 44.5C57.6413 44.14 57.8613 43.8267 58.208 43.56C58.6213 43.2533 58.9746 42.8867 59.268 42.46C59.5746 42.02 59.8213 41.5067 60.008 40.92C60.208 40.3333 60.3546 39.6533 60.448 38.88C60.5413 38.0933 60.588 37.2067 60.588 36.22V33.52C60.588 33 60.728 32.6 61.008 32.32C61.288 32.04 61.6946 31.9 62.228 31.9H69.288C69.8213 31.9 70.228 32.04 70.508 32.32C70.788 32.6 70.928 33 70.928 33.52V44.58C70.928 45.0867 70.7946 45.48 70.528 45.76C70.2613 46.04 69.8746 46.18 69.368 46.18ZM75.3042 46.18C74.7976 46.18 74.4109 46.04 74.1442 45.76C73.8776 45.48 73.7442 45.0867 73.7442 44.58V33.5C73.7442 32.98 73.8776 32.5867 74.1442 32.32C74.4242 32.04 74.8242 31.9 75.3442 31.9H82.2242C82.6509 31.9 82.9776 32.0133 83.2042 32.24C83.4309 32.4533 83.5442 32.7667 83.5442 33.18C83.5442 33.58 83.4309 33.8933 83.2042 34.12C82.9776 34.3467 82.6509 34.46 82.2242 34.46H76.8442V44.58C76.8442 45.0867 76.7109 45.48 76.4442 45.76C76.1909 46.04 75.8109 46.18 75.3042 46.18ZM83.7341 46.18C83.3607 46.18 83.0541 46.0933 82.8141 45.92C82.5874 45.7467 82.4407 45.5133 82.3741 45.22C82.3207 44.9267 82.3807 44.6 82.5541 44.24L87.6741 33.02C87.8874 32.5667 88.1407 32.24 88.4341 32.04C88.7274 31.8267 89.0674 31.72 89.4541 31.72C89.8407 31.72 90.1807 31.8267 90.4741 32.04C90.7674 32.24 91.0141 32.5667 91.2141 33.02L96.3741 44.24C96.5474 44.6 96.6074 44.9333 96.5541 45.24C96.5141 45.5333 96.3807 45.7667 96.1541 45.94C95.9274 46.1 95.6341 46.18 95.2741 46.18C94.8207 46.18 94.4674 46.0733 94.2141 45.86C93.9741 45.6467 93.7607 45.3133 93.5741 44.86L92.3741 42.08L93.6141 42.94H85.2741L86.5141 42.08L85.3341 44.86C85.1341 45.3267 84.9207 45.6667 84.6941 45.88C84.4807 46.08 84.1607 46.18 83.7341 46.18ZM89.4141 35.2L86.8541 41.3L86.3141 40.52H92.5741L92.0341 41.3L89.4541 35.2H89.4141ZM98.7927 46.18C98.4193 46.18 98.1127 46.0933 97.8727 45.92C97.646 45.7467 97.4993 45.5133 97.4327 45.22C97.3793 44.9267 97.4393 44.6 97.6127 44.24L102.733 33.02C102.946 32.5667 103.199 32.24 103.493 32.04C103.786 31.8267 104.126 31.72 104.513 31.72C104.899 31.72 105.239 31.8267 105.533 32.04C105.826 32.24 106.073 32.5667 106.273 33.02L111.433 44.24C111.606 44.6 111.666 44.9333 111.613 45.24C111.573 45.5333 111.439 45.7667 111.213 45.94C110.986 46.1 110.693 46.18 110.333 46.18C109.879 46.18 109.526 46.0733 109.273 45.86C109.033 45.6467 108.819 45.3133 108.633 44.86L107.433 42.08L108.673 42.94H100.333L101.573 42.08L100.393 44.86C100.193 45.3267 99.9793 45.6667 99.7527 45.88C99.5393 46.08 99.2193 46.18 98.7927 46.18ZM104.473 35.2L101.913 41.3L101.373 40.52H107.633L107.093 41.3L104.513 35.2H104.473Z" fill="#67748E"/>
<rect x="128" y="6" width="50" height="8" rx="4" fill="#4A86FF"/>
<rect x="128" y="22" width="35" height="8" rx="4" fill="#FF6A71"/>
<rect x="128" y="38" width="25" height="8" rx="4" fill="#00A990"/>
</svg>
