<svg id="Layer_1" data-name="Layer 1" xmlns="http://www.w3.org/2000/svg" xmlns:xlink="http://www.w3.org/1999/xlink" viewBox="0 0 800 160.01"><defs><style>.cls-1,.cls-2{fill-rule:evenodd;}.cls-1{fill:url(#radial-gradient);}.cls-2{fill:url(#radial-gradient-2);}.cls-3{fill:#0b529c;}.cls-4{fill:#09539c;}</style><radialGradient id="radial-gradient" cx="62.45" cy="43.31" r="109.39" gradientUnits="userSpaceOnUse"><stop offset="0" stop-color="#a9e0fa"/><stop offset="1" stop-color="#76bae5"/></radialGradient><radialGradient id="radial-gradient-2" cx="80.45" cy="68.59" r="92.1" gradientUnits="userSpaceOnUse"><stop offset="0" stop-color="#1992d1"/><stop offset="1" stop-color="#09539c"/></radialGradient></defs><polygon class="cls-1" points="75.31 0 87.98 25.89 56.66 89.9 25.34 153.91 0 153.91 37.65 76.95 75.31 0 75.31 0"/><polygon class="cls-2" points="93.13 36.42 121.88 95.17 150.62 153.91 93.13 153.91 79.44 153.91 92.04 128.16 93.13 128.16 108.42 128.16 100.78 112.53 100.23 111.42 100.23 111.42 93.13 96.91 85.49 112.53 79.67 124.43 65.24 153.91 35.64 153.91 64.39 95.17 93.13 36.42 93.13 36.42"/><path class="cls-3" d="M179.33,42.47h17.76V81.94l25.47-39.47h18.06v65.79H222.84V68.79l-25.09,39.47H179.33Z"/><path class="cls-3" d="M253.31,108.26V42.47h18.43V66.15h22.37V42.47h18.43v65.79H294.11V81.94H271.74v26.32Z"/><path class="cls-3" d="M334.43,108.26v-50H320V42.47h47.36V58.26H352.85v50Z"/><path class="cls-3" d="M374.77,108.26V42.47h39.47V58.26h-21v9.2h19.06V81.94H393.2V92.48h21v15.78Z"/><path class="cls-3" d="M425,108.26V42.47h27.72q8.74,0,14.21,3.47a20.12,20.12,0,0,1,7.61,8.46,24.53,24.53,0,0,1,0,20.13,19.85,19.85,0,0,1-7.61,8.54q-5.46,3.48-14.21,3.49h-9.29v21.7ZM443.38,57V72.08h5.25q9,0,9-7.62t-9-7.5Z"/><path class="cls-3" d="M479.47,108.26l23.41-65.79h22.37l23.32,65.79H528.83l-3.58-11.38H502.88l-3.67,11.38ZM514.08,57.6l-7.53,24.83h15Z"/><path class="cls-3" d="M554.67,108.26V42.47H573.1V70.1l19.82-27.63h21.62l-25,31.86,25.66,33.93h-23L573.1,80v28.29Z"/><path class="cls-3" d="M630.51,108.26v-50H616.05V42.47h47.37V58.26H648.94v50Z"/><path class="cls-3" d="M670.85,42.47h17.76V81.94l25.48-39.47h18v65.79H714.36V68.79l-25.08,39.47H670.85Z"/><path class="cls-3" d="M744.83,42.47h31.88q7.89,0,12.3,2.74a13.68,13.68,0,0,1,5.82,6.47,20,20,0,0,1,1.52,7.52,13,13,0,0,1-2.91,8.47,16.47,16.47,0,0,1-7.35,5.26v.18a23,23,0,0,1,9.5,5.07Q800,82,800,89.93a18.24,18.24,0,0,1-2.25,8.84,16.07,16.07,0,0,1-7,6.85q-4.79,2.64-12.23,2.64H744.83Zm18.43,25.94H771q8.44,0,8.44-6.2a6.06,6.06,0,0,0-2-4.7c-1.38-1.26-3.53-1.89-6.47-1.89h-7.71Zm0,26.71h8.47q9.87,0,9.86-7,0-6.56-9.86-6.56h-8.47Z"/><path class="cls-4" d="M198.7,127.25v23.59h3.08V158h-2.31v-5.13H181.64V158h-2.31v-7.18h.29q2.24,0,3.5-2.68a18,18,0,0,0,1.26-7.5V127.25Zm-11.83,13.41c0,1.29,0,2.41-.11,3.35a19.94,19.94,0,0,1-.4,2.73,7.11,7.11,0,0,1-2.45,4.1h12.3V129.31h-9.34Z"/><path class="cls-4" d="M207.2,137v11.53L218,136.07v16.82h-2.2V141.45L205,153.91V137Z"/><path class="cls-4" d="M231.11,144.63,224,152.91l-2.84,0,7.69-8.5L221.62,137h2.71l6.78,7.16V137h2.19v7.16l6.78-7.16h2.71l-7.18,7.36,7.69,8.5-2.84,0-7.16-8.28v8.26h-2.19Z"/><path class="cls-4" d="M248.61,137v11.53l10.8-12.46v16.82h-2.19V141.45l-10.81,12.46V137Z"/><path class="cls-4" d="M268.16,138.79h-5.63V137H276v1.76h-5.64v14.1h-2.2Z"/><path class="cls-4" d="M292.22,137h2v15.89h-2v-2.71a6,6,0,0,1-2.56,2.53,7.36,7.36,0,0,1-3.3.8,8.56,8.56,0,0,1-5.74-2.18q-2.53-2.18-2.53-6.39a8.79,8.79,0,0,1,2.25-6.09,7.71,7.71,0,0,1,6.06-2.51l1.21.07a2.31,2.31,0,0,1,.49,0,6.82,6.82,0,0,1,.94.33,6,6,0,0,1,1.65,1.09,5.5,5.5,0,0,1,1.53,1.94Zm-1.72,13a7.1,7.1,0,0,0,1.72-5.07,7.9,7.9,0,0,0-1.53-4.77,5,5,0,0,0-4.25-2.09,5.36,5.36,0,0,0-4.34,2,7.35,7.35,0,0,0-1.67,4.86,7.81,7.81,0,0,0,1.56,4.76,5.11,5.11,0,0,0,4.37,2.11A5.59,5.59,0,0,0,290.5,150Z"/><path class="cls-4" d="M311.67,152.89h-2.2v-14.1h-6.81v9.46a5.13,5.13,0,0,1-1.08,3.25c-.72.93-2.06,1.39-4,1.39h-.18v-1.8c1.34,0,2.19-.37,2.54-1.11a7.11,7.11,0,0,0,.53-3V137h11.21Z"/><path class="cls-4" d="M329.94,137h2.2v14.1h7.43V137h2.2v14.1h7.43V137h2.2v15.86H329.94Z"/><path class="cls-4" d="M359,137v11.53l10.8-12.46v16.82h-2.2V141.45l-10.8,12.46V137Z"/><path class="cls-4" d="M387.21,152.89H385v-14.1H378.2v9.46a5.13,5.13,0,0,1-1.08,3.25c-.72.93-2.05,1.39-4,1.39h-.18v-1.8q2,0,2.55-1.11a7.26,7.26,0,0,0,.53-3V137h11.2Z"/><path class="cls-4" d="M400.32,144.63l-7.15,8.28-2.85,0,7.69-8.5L390.84,137h2.71l6.77,7.16V137h2.2v7.16l6.77-7.16H412l-7.17,7.36,7.69,8.5-2.85,0-7.15-8.28v8.26h-2.2Z"/><path class="cls-4" d="M417.83,137v11.53l10.8-12.46v16.82h-2.2V141.45l-10.8,12.46V137Z"/><path class="cls-4" d="M446,152.89h-2.2v-14.1H437v9.46a5.13,5.13,0,0,1-1.08,3.25c-.72.93-2.05,1.39-4,1.39h-.18v-1.8q2,0,2.55-1.11a7.26,7.26,0,0,0,.53-3V137H446Z"/><path class="cls-4" d="M454.77,138.79h-5.64V137h13.48v1.76H457v14.1h-2.2Z"/><path class="cls-4" d="M492.82,149.19l-.67.77-.93.95-.48.44-.44.4-.89.66-.85.48a8.83,8.83,0,0,1-1.67.47l-1.8.15a9.77,9.77,0,0,1-3-.4,5.71,5.71,0,0,1-2.2-1.32,8.12,8.12,0,0,1-2.23-3.85l-.11-.69v-.73a6.65,6.65,0,0,1,1.57-4.64,20,20,0,0,1,4-3.31l.41-.26.43-.29-.66-.77-.62-.77a22.58,22.58,0,0,1-1.24-2,5.32,5.32,0,0,1-.48-2.2,4.49,4.49,0,0,1,1.7-3.68,6,6,0,0,1,3.9-1.38,4.65,4.65,0,0,1,3.81,1.52,5.38,5.38,0,0,1,1.25,3.5l-.11,1a4.2,4.2,0,0,1-.26.92,7.19,7.19,0,0,1-1.45,2,23,23,0,0,1-2.87,2.32l6.1,7.65,3.46-4.06,1.53,1.24-3.71,4.37,4,5.23h-2.56Zm-7.71-9.68-1.33,1-1.17.91a8.29,8.29,0,0,0-2,2.16,5.55,5.55,0,0,0-.75,3,5.43,5.43,0,0,0,5.35,5.28l1.18-.11,1.07-.33a9.18,9.18,0,0,0,1.85-1.29l2.3-2.4Zm1.34-2.92.66-.47a7,7,0,0,0,1.61-1.74,4.11,4.11,0,0,0,.59-2.22,3.46,3.46,0,0,0-.79-2.14,2.56,2.56,0,0,0-2.11-1h-.11a3.35,3.35,0,0,0-2.12.83,2.92,2.92,0,0,0-1,2.43v.66a4.39,4.39,0,0,0,.57,1.54l.94,1.39.57.66.52.51Z"/><path class="cls-4" d="M514.83,127.25h19.74v25.64h-2.49V129.31H517.32v23.58h-2.49Z"/><path class="cls-4" d="M542.55,137v2.81a6.84,6.84,0,0,1,2.18-2.45,6.35,6.35,0,0,1,3.75-1,7.67,7.67,0,0,1,6,2.45,8.8,8.8,0,0,1,2.23,6.15,8.06,8.06,0,0,1-2.47,6.37,8.25,8.25,0,0,1-5.66,2.2,6.59,6.59,0,0,1-3.07-.62,8.39,8.39,0,0,1-2-1.43l-.48-.55-.32-.48v10.15h-2.2V137Zm10.29,12.78a8,8,0,0,0,1.5-4.84v-.73l-.07-.73a7.84,7.84,0,0,0-1.75-3.67,5.19,5.19,0,0,0-4.24-1.72,5,5,0,0,0-4.17,2.07,7.74,7.74,0,0,0-1.56,4.78,6.88,6.88,0,0,0,1.79,5,5.77,5.77,0,0,0,4.21,1.81A5,5,0,0,0,552.84,149.78Z"/><path class="cls-4" d="M562.65,151.28a8,8,0,0,1-2.6-6.34,8.54,8.54,0,0,1,2.38-6.09,9.07,9.07,0,0,1,12.53,0A9,9,0,0,1,575,151a8.23,8.23,0,0,1-6.3,2.49A8.57,8.57,0,0,1,562.65,151.28Zm10.7-1.61a7.7,7.7,0,0,0,1.64-4.73,7.46,7.46,0,0,0-1.66-4.7,6.11,6.11,0,0,0-9.27,0,7.43,7.43,0,0,0-1.66,4.74,7.5,7.5,0,0,0,1.66,4.71,5.54,5.54,0,0,0,4.63,2.14A5.65,5.65,0,0,0,573.35,149.67Z"/><path class="cls-4" d="M581.73,137h8.86v1.76h-6.66v14.1h-2.2Z"/><path class="cls-4" d="M595.76,137v2.81a6.81,6.81,0,0,1,2.17-2.45,6.4,6.4,0,0,1,3.76-1,7.67,7.67,0,0,1,6,2.45,8.8,8.8,0,0,1,2.23,6.15,8.06,8.06,0,0,1-2.47,6.37,8.27,8.27,0,0,1-5.66,2.2,6.59,6.59,0,0,1-3.07-.62,8,8,0,0,1-2-1.43l-.48-.55-.33-.48v10.15h-2.2V137Zm10.29,12.78a8,8,0,0,0,1.5-4.84v-.73l-.08-.73a7.82,7.82,0,0,0-1.74-3.67,5.2,5.2,0,0,0-4.24-1.72,5,5,0,0,0-4.17,2.07,7.74,7.74,0,0,0-1.56,4.78,6.84,6.84,0,0,0,1.79,5,5.77,5.77,0,0,0,4.21,1.81A5,5,0,0,0,606.05,149.78Z"/><path class="cls-4" d="M627.39,137h2.06v15.89h-2.06v-2.71a6,6,0,0,1-2.56,2.53,7.36,7.36,0,0,1-3.3.8,8.56,8.56,0,0,1-5.74-2.18q-2.53-2.18-2.53-6.39a8.79,8.79,0,0,1,2.25-6.09,7.71,7.71,0,0,1,6.06-2.51l1.21.07a2.41,2.41,0,0,1,.5,0,7.42,7.42,0,0,1,.93.33,6,6,0,0,1,1.65,1.09,5.5,5.5,0,0,1,1.53,1.94Zm-1.72,13a7.1,7.1,0,0,0,1.72-5.07,7.9,7.9,0,0,0-1.53-4.77,5,5,0,0,0-4.25-2.09,5.36,5.36,0,0,0-4.34,2,7.35,7.35,0,0,0-1.67,4.86,7.81,7.81,0,0,0,1.56,4.76,5.11,5.11,0,0,0,4.37,2.11A5.59,5.59,0,0,0,625.67,150Z"/><path class="cls-4" d="M636.7,135.81l6.48,14,6.48-14,3.77,17.08h-2.18L649,141.61l-5.77,12.29-5.78-12.29-2.3,11.27h-2.18Z"/><path class="cls-4" d="M673.35,144.72,667.71,137h2.82l4.25,6.17,3.94-6.18h2.57L676,144.68l5.9,8.21-2.76,0-4.53-6.67-4.34,6.7h-2.84Z"/><path class="cls-4" d="M698.14,137h2.05v15.89h-2.05v-2.71a6,6,0,0,1-2.56,2.53,7.42,7.42,0,0,1-3.3.8,8.58,8.58,0,0,1-5.75-2.18,8,8,0,0,1-2.52-6.39,8.79,8.79,0,0,1,2.25-6.09,7.71,7.71,0,0,1,6.06-2.51l1.21.07a2.31,2.31,0,0,1,.49,0,6.82,6.82,0,0,1,.94.33,6.08,6.08,0,0,1,1.64,1.09,5.52,5.52,0,0,1,1.54,1.94Zm-1.72,13a7.1,7.1,0,0,0,1.72-5.07,7.84,7.84,0,0,0-1.54-4.77,5,5,0,0,0-4.24-2.09,5.35,5.35,0,0,0-4.34,2,7.3,7.3,0,0,0-1.67,4.86,7.81,7.81,0,0,0,1.56,4.76,5.09,5.09,0,0,0,4.37,2.11A5.59,5.59,0,0,0,696.42,150Z"/><path class="cls-4" d="M705.61,137h2.2v6.85h8.93V137h2.2v15.86h-2.2v-7.25h-8.93v7.25h-2.2Z"/><path class="cls-4" d="M724.36,137h8.86v1.76h-6.66v14.1h-2.2Z"/><path class="cls-4" d="M749.44,137h2v15.89h-2v-2.71a6,6,0,0,1-2.56,2.53,7.36,7.36,0,0,1-3.3.8,8.56,8.56,0,0,1-5.74-2.18q-2.54-2.18-2.53-6.39a8.79,8.79,0,0,1,2.25-6.09,7.71,7.71,0,0,1,6.06-2.51l1.21.07a2.25,2.25,0,0,1,.49,0,6.82,6.82,0,0,1,.94.33,6,6,0,0,1,1.65,1.09,5.5,5.5,0,0,1,1.53,1.94Zm-1.72,13a7.1,7.1,0,0,0,1.72-5.07,7.9,7.9,0,0,0-1.53-4.77,5,5,0,0,0-4.25-2.09,5.36,5.36,0,0,0-4.34,2,7.35,7.35,0,0,0-1.67,4.86,7.81,7.81,0,0,0,1.56,4.76,5.11,5.11,0,0,0,4.37,2.11A5.59,5.59,0,0,0,747.72,150Z"/><path class="cls-4" d="M758.75,135.81l6.48,14,6.48-14,3.77,17.08H773.3L771,141.61l-5.77,12.29-5.78-12.29-2.3,11.27H755Z"/><path class="cls-4" d="M786.65,144.63l-7.15,8.28-2.85,0,7.69-8.5L777.16,137h2.71l6.78,7.16V137h2.2v7.16l6.77-7.16h2.71l-7.18,7.36,7.69,8.5-2.84,0-7.15-8.28v8.26h-2.2Z"/></svg>