<svg width="800" height="161" viewBox="0 0 800 161" fill="none" xmlns="http://www.w3.org/2000/svg">
<path fill-rule="evenodd" clip-rule="evenodd" d="M75.31 0L87.98 25.89L56.66 89.9L25.34 153.91H0L37.65 76.95L75.31 0Z" fill="white"/>
<path fill-rule="evenodd" clip-rule="evenodd" d="M93.1301 36.4199L121.88 95.1699L150.62 153.91H93.1301H79.4401L92.0401 128.16H93.1301H108.42L100.78 112.53L100.23 111.42L93.1301 96.9099L85.4901 112.53L79.6701 124.43L65.2401 153.91H35.6401L64.3901 95.1699L93.1301 36.4199Z" fill="white"/>
<path d="M179.33 42.4702H197.09V81.9402L222.56 42.4702H240.62V108.26H222.84V68.7902L197.75 108.26H179.33V42.4702Z" fill="white"/>
<path d="M253.31 108.26V42.4702H271.74V66.1502H294.11V42.4702H312.54V108.26H294.11V81.9402H271.74V108.26H253.31Z" fill="white"/>
<path d="M334.43 108.26V58.2602H320V42.4702H367.36V58.2602H352.85V108.26H334.43Z" fill="white"/>
<path d="M374.77 108.26V42.4702H414.24V58.2602H393.24V67.4602H412.3V81.9402H393.2V92.4802H414.2V108.26H374.77Z" fill="white"/>
<path d="M425 108.26V42.4702H452.72C458.547 42.4702 463.283 43.6269 466.93 45.9402C470.228 47.9692 472.87 50.9067 474.54 54.4002C475.964 57.5647 476.7 60.9952 476.7 64.4652C476.7 67.9352 475.964 71.3658 474.54 74.5302C472.896 78.0619 470.25 81.0319 466.93 83.0702C463.29 85.3902 458.553 86.5535 452.72 86.5602H443.43V108.26H425ZM443.38 57.0002V72.0802H448.63C454.63 72.0802 457.63 69.5402 457.63 64.4602C457.63 59.3802 454.63 56.8802 448.63 56.9602L443.38 57.0002Z" fill="white"/>
<path d="M479.47 108.26L502.88 42.4702H525.25L548.57 108.26H528.83L525.25 96.8802H502.88L499.21 108.26H479.47ZM514.08 57.6002L506.55 82.4302H521.55L514.08 57.6002Z" fill="white"/>
<path d="M554.67 108.26V42.4702H573.1V70.1002L592.92 42.4702H614.54L589.54 74.3302L615.2 108.26H592.2L573.1 80.0002V108.29L554.67 108.26Z" fill="white"/>
<path d="M630.51 108.26V58.2602H616.05V42.4702H663.42V58.2602H648.94V108.26H630.51Z" fill="white"/>
<path d="M670.85 42.4702H688.61V81.9402L714.09 42.4702H732.09V108.26H714.36V68.7902L689.28 108.26H670.85V42.4702Z" fill="white"/>
<path d="M744.83 42.4702H776.71C781.97 42.4702 786.07 43.3835 789.01 45.2102C791.603 46.6759 793.646 48.9475 794.83 51.6802C795.817 54.0653 796.333 56.6189 796.35 59.2002C796.414 62.2791 795.383 65.2807 793.44 67.6702C791.529 70.0746 788.983 71.8966 786.09 72.9302V73.1102C789.613 74.0247 792.869 75.7623 795.59 78.1802C798.53 80.7269 800 84.6435 800 89.9302C800.011 93.0199 799.237 96.0617 797.75 98.7702C796.186 101.726 793.739 104.121 790.75 105.62C787.557 107.38 783.48 108.26 778.52 108.26H744.83V42.4702ZM763.26 68.4102H771C776.627 68.4102 779.44 66.3435 779.44 62.2102C779.469 61.3284 779.305 60.451 778.959 59.6392C778.614 58.8274 778.095 58.1008 777.44 57.5102C776.06 56.2502 773.91 55.6202 770.97 55.6202H763.26V68.4102ZM763.26 95.1202H771.73C778.31 95.1202 781.597 92.7869 781.59 88.1202C781.59 83.7469 778.303 81.5602 771.73 81.5602H763.26V95.1202Z" fill="white"/>
<path d="M198.7 127.25V150.84H201.78V158H199.47V152.87H181.64V158H179.33V150.82H179.62C181.113 150.82 182.28 149.927 183.12 148.14C184.069 145.758 184.499 143.201 184.38 140.64V127.25H198.7ZM186.87 140.66C186.87 141.95 186.87 143.07 186.76 144.01C186.69 144.928 186.556 145.84 186.36 146.74C186.041 148.348 185.175 149.797 183.91 150.84H196.21V129.31H186.87V140.66Z" fill="white"/>
<path d="M207.2 137V148.53L218 136.07V152.89H215.8V141.45L205 153.91V137H207.2Z" fill="white"/>
<path d="M231.11 144.63L224 152.91H221.16L228.85 144.41L221.62 137H224.33L231.11 144.16V137H233.3V144.16L240.08 137H242.79L235.61 144.36L243.3 152.86H240.46L233.3 144.58V152.84H231.11V144.63Z" fill="white"/>
<path d="M248.61 137V148.53L259.41 136.07V152.89H257.22V141.45L246.41 153.91V137H248.61Z" fill="white"/>
<path d="M268.16 138.79H262.53V137H276V138.76H270.36V152.86H268.16V138.79Z" fill="white"/>
<path d="M292.22 137H294.22V152.89H292.22V150.18C291.646 151.265 290.752 152.148 289.66 152.71C288.637 153.23 287.507 153.504 286.36 153.51C284.243 153.518 282.198 152.741 280.62 151.33C278.933 149.877 278.09 147.747 278.09 144.94C278.035 142.697 278.84 140.518 280.34 138.85C281.103 138.012 282.042 137.352 283.09 136.918C284.137 136.485 285.267 136.287 286.4 136.34L287.61 136.41C287.773 136.393 287.937 136.393 288.1 136.41C288.421 136.497 288.735 136.607 289.04 136.74C289.647 137.01 290.204 137.378 290.69 137.83C291.341 138.352 291.864 139.016 292.22 139.77V137ZM290.5 150C291.713 148.599 292.33 146.78 292.22 144.93C292.241 143.216 291.704 141.542 290.69 140.16C290.21 139.487 289.57 138.945 288.828 138.58C288.086 138.215 287.266 138.04 286.44 138.07C285.611 138.045 284.788 138.212 284.035 138.56C283.282 138.907 282.619 139.424 282.1 140.07C280.977 141.436 280.384 143.162 280.43 144.93C280.413 146.645 280.961 148.318 281.99 149.69C282.486 150.376 283.146 150.928 283.909 151.297C284.671 151.665 285.514 151.838 286.36 151.8C287.137 151.804 287.907 151.646 288.62 151.336C289.333 151.027 289.973 150.571 290.5 150Z" fill="white"/>
<path d="M311.67 152.89H309.47V138.79H302.66V148.25C302.683 149.425 302.302 150.572 301.58 151.5C300.86 152.43 299.52 152.89 297.58 152.89H297.4V151.09C298.74 151.09 299.59 150.72 299.94 149.98C300.331 149.03 300.512 148.007 300.47 146.98V137H311.68L311.67 152.89Z" fill="white"/>
<path d="M329.94 137H332.14V151.1H339.57V137H341.77V151.1H349.2V137H351.4V152.86H329.94V137Z" fill="white"/>
<path d="M359 137V148.53L369.8 136.07V152.89H367.6V141.45L356.8 153.91V137H359Z" fill="white"/>
<path d="M387.21 152.89H385V138.79H378.2V148.25C378.223 149.425 377.842 150.572 377.12 151.5C376.4 152.43 375.07 152.89 373.12 152.89H372.94V151.09C374.273 151.09 375.123 150.72 375.49 149.98C375.877 149.029 376.057 148.006 376.02 146.98V137H387.22L387.21 152.89Z" fill="white"/>
<path d="M400.32 144.63L393.17 152.91H390.32L398.01 144.41L390.84 137H393.55L400.32 144.16V137H402.52V144.16L409.29 137H412L404.83 144.36L412.52 152.86H409.67L402.52 144.58V152.84H400.32V144.63Z" fill="white"/>
<path d="M417.83 137V148.53L428.63 136.07V152.89H426.43V141.45L415.63 153.91V137H417.83Z" fill="white"/>
<path d="M446 152.89H443.8V138.79H437V148.25C437.023 149.425 436.642 150.572 435.92 151.5C435.2 152.43 433.87 152.89 431.92 152.89H431.74V151.09C433.074 151.09 433.924 150.72 434.29 149.98C434.677 149.029 434.858 148.006 434.82 146.98V137H446V152.89Z" fill="white"/>
<path d="M454.77 138.79H449.13V137H462.61V138.76H457V152.86H454.8L454.77 138.79Z" fill="white"/>
<path d="M492.82 149.19L492.15 149.96L491.22 150.91L490.74 151.35L490.3 151.75L489.41 152.41L488.56 152.89C488.02 153.101 487.461 153.258 486.89 153.36L485.09 153.51C484.075 153.533 483.063 153.398 482.09 153.11C481.266 152.842 480.514 152.391 479.89 151.79C478.803 150.739 478.031 149.406 477.66 147.94L477.55 147.25V146.52C477.464 144.83 478.025 143.17 479.12 141.88C480.304 140.607 481.649 139.495 483.12 138.57L483.53 138.31L483.96 138.02L483.3 137.25L482.68 136.48C482.232 135.835 481.818 135.168 481.44 134.48C481.125 133.789 480.961 133.039 480.96 132.28C480.935 131.576 481.076 130.876 481.371 130.237C481.667 129.598 482.108 129.037 482.66 128.6C483.755 127.692 485.138 127.203 486.56 127.22C487.269 127.165 487.981 127.274 488.642 127.537C489.302 127.801 489.894 128.212 490.37 128.74C491.189 129.721 491.632 130.962 491.62 132.24L491.51 133.24C491.459 133.555 491.372 133.864 491.25 134.16C490.886 134.905 490.395 135.582 489.8 136.16C488.907 137.009 487.947 137.785 486.93 138.48L493.03 146.13L496.49 142.07L498.02 143.31L494.31 147.68L498.31 152.91H495.75L492.82 149.19ZM485.11 139.51L483.78 140.51L482.61 141.42C481.82 142.015 481.143 142.746 480.61 143.58C480.081 144.489 479.821 145.529 479.86 146.58C479.899 147.98 480.477 149.311 481.474 150.295C482.471 151.279 483.81 151.84 485.21 151.86L486.39 151.75L487.46 151.42C488.127 151.068 488.749 150.634 489.31 150.13L491.61 147.73L485.11 139.51ZM486.45 136.59L487.11 136.12C487.742 135.636 488.286 135.047 488.72 134.38C489.124 133.711 489.328 132.941 489.31 132.16C489.296 131.378 489.018 130.623 488.52 130.02C488.273 129.698 487.953 129.439 487.586 129.265C487.219 129.091 486.816 129.007 486.41 129.02H486.3C485.518 129.041 484.768 129.334 484.18 129.85C483.835 130.149 483.565 130.524 483.391 130.946C483.218 131.368 483.145 131.825 483.18 132.28V132.94C483.272 133.485 483.465 134.007 483.75 134.48L484.69 135.87L485.26 136.53L485.78 137.04L486.45 136.59Z" fill="white"/>
<path d="M514.83 127.25H534.57V152.89H532.08V129.31H517.32V152.89H514.83V127.25Z" fill="white"/>
<path d="M542.55 137V139.81C543.067 138.829 543.815 137.988 544.73 137.36C545.845 136.644 547.156 136.294 548.48 136.36C549.598 136.306 550.715 136.497 551.751 136.92C552.788 137.344 553.719 137.989 554.48 138.81C555.986 140.497 556.784 142.7 556.71 144.96C556.79 146.138 556.61 147.319 556.183 148.42C555.756 149.52 555.093 150.514 554.24 151.33C552.701 152.756 550.678 153.543 548.58 153.53C547.521 153.573 546.468 153.36 545.51 152.91C544.776 152.534 544.103 152.052 543.51 151.48L543.03 150.93L542.71 150.45V160.6H540.51V137H542.55ZM552.84 149.78C553.851 148.372 554.377 146.673 554.34 144.94V144.21L554.27 143.48C554.019 142.124 553.416 140.858 552.52 139.81C551.991 139.218 551.335 138.756 550.6 138.458C549.865 138.159 549.071 138.034 548.28 138.09C547.469 138.071 546.666 138.25 545.939 138.61C545.213 138.971 544.585 139.503 544.11 140.16C543.072 141.535 542.523 143.218 542.55 144.94C542.502 145.851 542.636 146.761 542.943 147.62C543.25 148.478 543.725 149.267 544.34 149.94C544.881 150.513 545.533 150.97 546.257 151.281C546.981 151.592 547.762 151.752 548.55 151.75C549.372 151.8 550.193 151.647 550.942 151.303C551.69 150.96 552.342 150.436 552.84 149.78Z" fill="white"/>
<path d="M562.65 151.28C561.774 150.482 561.086 149.499 560.637 148.402C560.187 147.306 559.987 146.123 560.05 144.94C560.027 143.818 560.226 142.703 560.634 141.658C561.042 140.613 561.653 139.659 562.43 138.85C564.117 137.238 566.361 136.338 568.695 136.338C571.029 136.338 573.273 137.238 574.96 138.85C576.483 140.504 577.332 142.668 577.34 144.917C577.347 147.166 576.512 149.336 575 151C574.187 151.838 573.204 152.494 572.118 152.923C571.032 153.352 569.867 153.546 568.7 153.49C566.473 153.568 564.303 152.775 562.65 151.28ZM573.35 149.67C574.408 148.32 574.985 146.655 574.99 144.94C574.992 143.229 574.406 141.57 573.33 140.24C572.756 139.572 572.045 139.036 571.245 138.669C570.445 138.301 569.575 138.111 568.695 138.111C567.815 138.111 566.945 138.301 566.145 138.669C565.345 139.036 564.634 139.572 564.06 140.24C562.973 141.579 562.386 143.255 562.4 144.98C562.399 146.693 562.985 148.356 564.06 149.69C564.604 150.391 565.308 150.952 566.114 151.324C566.92 151.697 567.803 151.87 568.69 151.83C569.582 151.864 570.47 151.685 571.28 151.31C572.09 150.934 572.799 150.372 573.35 149.67Z" fill="white"/>
<path d="M581.73 137H590.59V138.76H583.93V152.86H581.73V137Z" fill="white"/>
<path d="M595.76 137V139.81C596.273 138.829 597.018 137.988 597.93 137.36C599.049 136.645 600.363 136.295 601.69 136.36C602.808 136.306 603.925 136.497 604.961 136.92C605.998 137.344 606.929 137.989 607.69 138.81C609.196 140.497 609.994 142.7 609.92 144.96C610 146.138 609.82 147.319 609.393 148.42C608.966 149.52 608.303 150.514 607.45 151.33C605.911 152.755 603.887 153.541 601.79 153.53C600.732 153.573 599.679 153.36 598.72 152.91C597.984 152.539 597.309 152.057 596.72 151.48L596.24 150.93L595.91 150.45V160.6H593.71V137H595.76ZM606.05 149.78C607.061 148.372 607.588 146.673 607.55 144.94V144.21L607.47 143.48C607.223 142.125 606.623 140.859 605.73 139.81C605.201 139.219 604.544 138.757 603.809 138.459C603.074 138.161 602.281 138.034 601.49 138.09C600.679 138.071 599.876 138.25 599.149 138.61C598.423 138.971 597.795 139.503 597.32 140.16C596.282 141.535 595.733 143.218 595.76 144.94C595.71 145.851 595.842 146.762 596.15 147.621C596.457 148.48 596.933 149.268 597.55 149.94C598.091 150.513 598.743 150.97 599.468 151.281C600.192 151.592 600.972 151.752 601.76 151.75C602.582 151.8 603.404 151.647 604.152 151.303C604.9 150.96 605.552 150.436 606.05 149.78Z" fill="white"/>
<path d="M627.39 137H629.45V152.89H627.39V150.18C626.816 151.265 625.922 152.148 624.83 152.71C623.807 153.23 622.677 153.504 621.53 153.51C619.413 153.518 617.368 152.741 615.79 151.33C614.103 149.877 613.26 147.747 613.26 144.94C613.205 142.697 614.01 140.518 615.51 138.85C616.273 138.012 617.212 137.352 618.26 136.918C619.307 136.485 620.437 136.287 621.57 136.34L622.78 136.41C622.946 136.393 623.114 136.393 623.28 136.41C623.597 136.499 623.908 136.609 624.21 136.74C624.816 137.01 625.374 137.378 625.86 137.83C626.51 138.352 627.034 139.016 627.39 139.77V137ZM625.67 150C626.883 148.599 627.5 146.78 627.39 144.93C627.411 143.216 626.874 141.542 625.86 140.16C625.379 139.487 624.74 138.945 623.998 138.58C623.256 138.215 622.436 138.04 621.61 138.07C620.781 138.045 619.958 138.212 619.205 138.56C618.452 138.907 617.789 139.424 617.27 140.07C616.147 141.436 615.554 143.162 615.6 144.93C615.583 146.645 616.131 148.318 617.16 149.69C617.656 150.376 618.316 150.928 619.078 151.297C619.841 151.665 620.684 151.838 621.53 151.8C622.307 151.804 623.077 151.646 623.79 151.336C624.503 151.027 625.143 150.571 625.67 150Z" fill="white"/>
<path d="M636.7 135.81L643.18 149.81L649.66 135.81L653.43 152.89H651.25L649 141.61L643.23 153.9L637.45 141.61L635.15 152.88H632.97L636.7 135.81Z" fill="white"/>
<path d="M673.35 144.72L667.71 137H670.53L674.78 143.17L678.72 136.99H681.29L676 144.68L681.9 152.89H679.14L674.61 146.22L670.27 152.92H667.43L673.35 144.72Z" fill="white"/>
<path d="M698.14 137H700.19V152.89H698.14V150.18C697.565 151.265 696.672 152.148 695.58 152.71C694.556 153.228 693.427 153.502 692.28 153.51C690.16 153.519 688.111 152.742 686.53 151.33C685.662 150.519 684.985 149.524 684.549 148.419C684.113 147.314 683.929 146.125 684.01 144.94C683.955 142.697 684.76 140.518 686.26 138.85C687.023 138.012 687.962 137.352 689.01 136.918C690.057 136.485 691.187 136.287 692.32 136.34L693.53 136.41C693.693 136.393 693.857 136.393 694.02 136.41C694.341 136.497 694.655 136.607 694.96 136.74C695.562 137.012 696.116 137.38 696.6 137.83C697.253 138.352 697.78 139.015 698.14 139.77V137ZM696.42 150C697.633 148.599 698.25 146.78 698.14 144.93C698.162 143.214 697.621 141.539 696.6 140.16C696.12 139.489 695.482 138.947 694.742 138.582C694.003 138.218 693.184 138.042 692.36 138.07C691.531 138.044 690.707 138.211 689.954 138.558C689.201 138.906 688.539 139.423 688.02 140.07C686.892 141.434 686.299 143.161 686.35 144.93C686.333 146.645 686.881 148.318 687.91 149.69C688.405 150.378 689.064 150.931 689.827 151.299C690.59 151.668 691.433 151.84 692.28 151.8C693.057 151.804 693.827 151.646 694.54 151.336C695.252 151.027 695.893 150.571 696.42 150Z" fill="white"/>
<path d="M705.61 137H707.81V143.85H716.74V137H718.94V152.86H716.74V145.61H707.81V152.86H705.61V137Z" fill="white"/>
<path d="M724.36 137H733.22V138.76H726.56V152.86H724.36V137Z" fill="white"/>
<path d="M749.44 137H751.44V152.89H749.44V150.18C748.866 151.265 747.972 152.148 746.88 152.71C745.858 153.23 744.728 153.504 743.58 153.51C741.463 153.518 739.418 152.741 737.84 151.33C736.147 149.877 735.304 147.747 735.31 144.94C735.256 142.697 736.061 140.518 737.56 138.85C738.324 138.012 739.263 137.352 740.31 136.918C741.357 136.485 742.488 136.287 743.62 136.34L744.83 136.41C744.993 136.392 745.157 136.392 745.32 136.41C745.641 136.497 745.955 136.607 746.26 136.74C746.867 137.01 747.424 137.378 747.91 137.83C748.561 138.352 749.084 139.016 749.44 139.77V137ZM747.72 150C748.933 148.599 749.55 146.78 749.44 144.93C749.461 143.216 748.924 141.542 747.91 140.16C747.43 139.487 746.79 138.945 746.048 138.58C745.307 138.215 744.486 138.04 743.66 138.07C742.831 138.045 742.008 138.212 741.255 138.56C740.502 138.907 739.84 139.424 739.32 140.07C738.197 141.436 737.604 143.162 737.65 144.93C737.634 146.645 738.182 148.318 739.21 149.69C739.707 150.376 740.366 150.928 741.129 151.297C741.892 151.665 742.734 151.838 743.58 151.8C744.358 151.804 745.127 151.646 745.84 151.336C746.553 151.027 747.193 150.571 747.72 150Z" fill="white"/>
<path d="M758.75 135.81L765.23 149.81L771.71 135.81L775.48 152.89H773.3L771 141.61L765.23 153.9L759.45 141.61L757.15 152.88H755L758.75 135.81Z" fill="white"/>
<path d="M786.65 144.63L779.5 152.91H776.65L784.34 144.41L777.16 137H779.87L786.65 144.16V137H788.85V144.16L795.62 137H798.33L791.15 144.36L798.84 152.86H796L788.85 144.58V152.84H786.65V144.63Z" fill="white"/>
</svg>
