<svg width="1501" height="336" viewBox="0 0 1501 336" fill="none" xmlns="http://www.w3.org/2000/svg">
<g clip-path="url(#clip0_3865_11706)">
<path d="M349.5 251.301V125.801H385.8V251.301H349.5Z" fill="white"/>
<path d="M411.3 251.301V125.801H449.4L496.8 199.801V125.801H531.8V251.301H494.2L446.3 176.001V251.301H411.3Z" fill="white"/>
<path d="M575.4 251.301V155.901H547V125.801H640.2V155.901H611.7V251.301H575.4Z" fill="white"/>
<path d="M655.4 251.301V125.801H733.1V155.901H691.7V173.501H729.3V201.101H691.7V221.201H733.1V251.301H655.4Z" fill="white"/>
<path d="M754.8 251.301V125.801H808.5C813.4 125.801 819.1 126.501 825.5 127.901C832 129.201 838.3 132.701 844.2 138.301C850.2 143.901 853.3 152.301 853.3 163.401C853.3 170.601 852 176.701 849.4 181.701C846.8 186.801 843.5 190.901 839.6 194.001C835.5 197.001 831 199.301 826.1 201.001L862.4 251.201H818.5L791.1 209.801V251.201H754.8V251.301ZM791.1 182.301H800C806.1 182.301 810.4 180.901 813 178.201C815.7 175.301 817.1 171.901 817.1 167.801C817.1 163.701 815.7 160.501 813 157.601C810.4 154.901 806.1 153.501 800 153.501H791.1V182.301Z" fill="white"/>
<path d="M863.2 251.301L909.3 125.801H953.3L999.2 251.301H960.3L953.3 229.601H909.3L902.1 251.301H863.2ZM931.4 154.601L916.5 202.001H946.1L931.4 154.601Z" fill="white"/>
<path d="M1107.3 245.499C1098 251.699 1086.4 254.799 1072.3 254.799C1060 254.799 1048.8 252.199 1038.7 246.899C1028.7 241.599 1020.7 233.899 1014.8 223.799C1009 213.799 1006.1 201.999 1006.1 188.499C1006.1 177.999 1007.9 168.599 1011.5 160.199C1015.1 151.799 1020 144.799 1026.3 139.199C1032.4 133.499 1039.5 129.199 1047.4 126.499C1055.2 123.599 1063.3 122.199 1071.8 122.199C1085.4 122.199 1097.2 125.499 1107.3 132.199V168.599C1098.5 158.599 1088.3 153.499 1076.6 153.499C1069.9 153.499 1064.1 155.099 1059 158.299C1053.9 161.499 1050.1 165.899 1047.3 171.399C1044.7 176.899 1043.4 182.999 1043.4 189.499C1043.4 196.599 1044.9 202.699 1047.8 207.799C1050.8 212.899 1054.8 216.799 1059.9 219.499C1064.9 222.099 1070.5 223.399 1076.6 223.399C1087.9 223.399 1098.2 218.899 1107.3 209.799V245.499Z" fill="white"/>
<path d="M1145.8 251.301V155.901H1117.3V125.801H1210.6V155.901H1182.1V251.301H1145.8Z" fill="white"/>
<path d="M1225.8 251.301V125.801H1262.1V251.301H1225.8Z" fill="white"/>
<path d="M1325.9 251.301L1274.6 125.801H1317.4L1344.2 208.601L1370.5 125.801H1410.1L1360.9 251.301H1325.9Z" fill="white"/>
<path d="M1422.7 251.301V125.801H1500.4V155.901H1459V173.501H1496.6V201.101H1459V221.201H1500.4V251.301H1422.7Z" fill="white"/>
<path d="M361.2 324H349.4V285.9H361.7C365.4 285.9 368.6 286.7 371.2 288.2C373.8 289.7 375.8 291.9 377.2 294.7C378.6 297.5 379.3 300.9 379.3 304.9C379.3 308.9 378.6 312.3 377.2 315.2C375.8 318.1 373.7 320.2 371 321.8C368.4 323.3 365.1 324 361.2 324ZM354.1 320H360.9C364.1 320 366.7 319.4 368.7 318.2C370.8 317 372.3 315.3 373.3 313C374.3 310.7 374.8 308.1 374.8 305C374.8 301.9 374.3 299.3 373.3 297.1C372.3 294.9 370.8 293.2 368.8 292C366.8 290.8 364.3 290.2 361.3 290.2H353.9V320H354.1Z" fill="white"/>
<path d="M386.5 323.999V295.399H390.9V323.999H386.5ZM388.8 290.699C387.9 290.699 387.2 290.399 386.6 289.799C386 289.199 385.7 288.499 385.7 287.699C385.7 286.899 386 286.199 386.6 285.599C387.2 284.999 388 284.699 388.8 284.699C389.7 284.699 390.4 284.999 391 285.599C391.6 286.199 391.9 286.899 391.9 287.699C391.9 288.499 391.6 289.199 391 289.799C390.4 290.399 389.6 290.699 388.8 290.699Z" fill="white"/>
<path d="M410.5 335.399C408.4 335.399 406.6 335.099 405 334.599C403.5 334.099 402.2 333.399 401.2 332.499C400.2 331.599 399.4 330.699 398.8 329.699L402.3 327.199C402.7 327.699 403.2 328.299 403.8 328.999C404.4 329.699 405.2 330.299 406.3 330.799C407.4 331.299 408.8 331.599 410.5 331.599C412.8 331.599 414.7 330.999 416.2 329.899C417.7 328.799 418.5 326.999 418.5 324.699V318.899H418.1C417.8 319.399 417.3 320.099 416.7 320.799C416.1 321.599 415.3 322.199 414.2 322.799C413.1 323.399 411.6 323.699 409.8 323.699C407.5 323.699 405.4 323.199 403.6 322.099C401.8 320.999 400.3 319.399 399.3 317.299C398.2 315.199 397.7 312.699 397.7 309.699C397.7 306.799 398.2 304.199 399.2 302.099C400.2 299.899 401.7 298.199 403.5 296.999C405.3 295.799 407.5 295.199 409.9 295.199C411.8 295.199 413.2 295.499 414.3 296.099C415.4 296.699 416.2 297.399 416.8 298.199C417.4 298.999 417.9 299.599 418.2 300.099H418.6V295.599H422.8V324.999C422.8 327.499 422.2 329.499 421.1 330.999C420 332.599 418.5 333.699 416.6 334.399C414.9 334.999 412.8 335.399 410.5 335.399ZM410.4 319.699C412.2 319.699 413.6 319.299 414.9 318.499C416.1 317.699 417 316.499 417.7 314.999C418.3 313.499 418.6 311.699 418.6 309.599C418.6 307.499 418.3 305.699 417.7 304.099C417.1 302.499 416.2 301.299 414.9 300.399C413.6 299.499 412.2 299.099 410.4 299.099C408.5 299.099 407 299.599 405.7 300.499C404.5 301.399 403.5 302.699 402.9 304.299C402.3 305.899 402 307.599 402 309.599C402 311.599 402.3 313.299 402.9 314.899C403.5 316.399 404.5 317.599 405.7 318.499C407 319.199 408.5 319.699 410.4 319.699Z" fill="white"/>
<path d="M430.9 323.999V295.399H435.3V323.999H430.9ZM433.1 290.699C432.2 290.699 431.5 290.399 430.9 289.799C430.3 289.199 430 288.499 430 287.699C430 286.899 430.3 286.199 430.9 285.599C431.5 284.999 432.3 284.699 433.1 284.699C434 284.699 434.7 284.999 435.3 285.599C435.9 286.199 436.2 286.899 436.2 287.699C436.2 288.499 435.9 289.199 435.3 289.799C434.7 290.399 434 290.699 433.1 290.699Z" fill="white"/>
<path d="M455.7 295.5V299.2H440.9V295.5H455.7ZM445.3 288.6H449.7V315.8C449.7 317 449.9 318 450.2 318.6C450.6 319.2 451 319.6 451.6 319.8C452.2 320 452.8 320.1 453.4 320.1C453.9 320.1 454.3 320.1 454.6 320C454.9 319.9 455.2 319.9 455.3 319.9L456.2 323.8C455.9 323.9 455.5 324 455 324.1C454.5 324.2 453.8 324.3 453 324.3C451.8 324.3 450.5 324 449.4 323.5C448.2 323 447.2 322.2 446.5 321.1C445.7 320 445.3 318.6 445.3 317V288.6Z" fill="white"/>
<path d="M470.8 324.7C469 324.7 467.3 324.4 465.9 323.7C464.4 323 463.3 322 462.4 320.7C461.5 319.4 461.1 317.8 461.1 315.9C461.1 314.3 461.4 312.9 462.1 311.9C462.7 310.9 463.6 310.1 464.7 309.5C465.8 308.9 467 308.5 468.3 308.2C469.6 307.9 470.9 307.7 472.3 307.5C474 307.3 475.4 307.1 476.5 307C477.6 306.9 478.4 306.7 478.9 306.4C479.4 306.1 479.7 305.6 479.7 304.9V304.8C479.7 303 479.2 301.5 478.2 300.5C477.2 299.5 475.7 299 473.7 299C471.6 299 470 299.5 468.8 300.4C467.6 301.3 466.8 302.3 466.3 303.3L462.1 301.8C462.8 300.1 463.8 298.7 465.1 297.7C466.4 296.7 467.7 296 469.2 295.7C470.7 295.3 472.2 295.1 473.6 295.1C474.5 295.1 475.6 295.2 476.8 295.4C478 295.6 479.2 296.1 480.3 296.7C481.4 297.4 482.4 298.4 483.1 299.7C483.8 301.1 484.2 302.9 484.2 305.1V324H479.8V320.1H479.6C479.3 320.7 478.8 321.4 478.1 322.1C477.4 322.8 476.5 323.4 475.3 323.9C473.8 324.5 472.4 324.7 470.8 324.7ZM471.4 320.8C473.1 320.8 474.6 320.5 475.8 319.8C477 319.1 477.9 318.2 478.5 317.2C479.1 316.1 479.4 315 479.4 313.8V309.8C479.2 310 478.8 310.2 478.2 310.4C477.6 310.6 476.9 310.7 476 310.9C475.2 311 474.4 311.1 473.6 311.2C472.8 311.3 472.2 311.4 471.8 311.4C470.7 311.5 469.6 311.8 468.6 312.1C467.6 312.4 466.8 312.9 466.2 313.6C465.6 314.2 465.3 315.1 465.3 316.2C465.3 317.7 465.9 318.9 467 319.7C468.2 320.4 469.7 320.8 471.4 320.8Z" fill="white"/>
<path d="M496.3 285.9V324H491.9V285.9H496.3Z" fill="white"/>
<path d="M531.5 295.5V299.2H516.7V295.5H531.5ZM521 288.6H525.4V315.8C525.4 317 525.6 318 525.9 318.6C526.3 319.2 526.7 319.6 527.3 319.8C527.9 320 528.5 320.1 529.1 320.1C529.6 320.1 530 320.1 530.3 320C530.6 319.9 530.9 319.9 531 319.9L531.9 323.8C531.6 323.9 531.2 324 530.7 324.1C530.2 324.2 529.5 324.3 528.7 324.3C527.5 324.3 526.2 324 525.1 323.5C523.9 323 522.9 322.2 522.2 321.1C521.4 320 521 318.6 521 317V288.6Z" fill="white"/>
<path d="M538.1 324V295.4H542.3V299.7H542.6C543.1 298.3 544.1 297.1 545.4 296.3C546.8 295.4 548.3 295 550 295C550.3 295 550.7 295 551.2 295C551.7 295 552 295 552.3 295.1V299.6C552.2 299.6 551.8 299.5 551.3 299.4C550.8 299.3 550.2 299.3 549.6 299.3C548.2 299.3 547 299.6 545.9 300.2C544.8 300.8 544 301.6 543.3 302.6C542.7 303.6 542.4 304.8 542.4 306V324H538.1Z" fill="white"/>
<path d="M566 324.7C564.2 324.7 562.5 324.4 561.1 323.7C559.6 323 558.5 322 557.6 320.7C556.7 319.4 556.3 317.8 556.3 315.9C556.3 314.3 556.6 312.9 557.3 311.9C557.9 310.9 558.8 310.1 559.9 309.5C561 308.9 562.2 308.5 563.5 308.2C564.8 307.9 566.1 307.7 567.5 307.5C569.2 307.3 570.6 307.1 571.7 307C572.8 306.9 573.6 306.7 574.1 306.4C574.6 306.1 574.9 305.6 574.9 304.9V304.8C574.9 303 574.4 301.5 573.4 300.5C572.4 299.5 570.9 299 568.9 299C566.8 299 565.2 299.5 564 300.4C562.8 301.3 562 302.3 561.5 303.3L557.3 301.8C558 300.1 559 298.7 560.3 297.7C561.6 296.7 562.9 296 564.4 295.7C565.9 295.3 567.4 295.1 568.8 295.1C569.7 295.1 570.8 295.2 572 295.4C573.2 295.6 574.4 296.1 575.5 296.7C576.6 297.4 577.6 298.4 578.3 299.7C579 301.1 579.4 302.9 579.4 305.1V324H575V320.1H574.8C574.5 320.7 574 321.4 573.3 322.1C572.6 322.8 571.7 323.4 570.5 323.9C569 324.5 567.6 324.7 566 324.7ZM566.6 320.8C568.3 320.8 569.8 320.5 571 319.8C572.2 319.1 573.1 318.2 573.7 317.2C574.3 316.1 574.6 315 574.6 313.8V309.8C574.4 310 574 310.2 573.4 310.4C572.8 310.6 572.1 310.7 571.2 310.9C570.4 311 569.6 311.1 568.8 311.2C568 311.3 567.4 311.4 567 311.4C565.9 311.5 564.8 311.8 563.8 312.1C562.8 312.4 562 312.9 561.4 313.6C560.8 314.2 560.5 315.1 560.5 316.2C560.5 317.7 561.1 318.9 562.2 319.7C563.4 320.4 564.9 320.8 566.6 320.8Z" fill="white"/>
<path d="M591.5 306.9V324H587.1V295.4H591.3V299.9H591.7C592.4 298.4 593.4 297.3 594.8 296.4C596.2 295.5 597.9 295.1 600.1 295.1C602 295.1 603.7 295.5 605.2 296.3C606.7 297.1 607.8 298.3 608.6 299.9C609.4 301.5 609.8 303.5 609.8 305.9V324H605.4V306.1C605.4 303.9 604.8 302.1 603.7 300.9C602.5 299.6 600.9 299 598.9 299C597.5 299 596.2 299.3 595.1 299.9C594 300.5 593.1 301.4 592.5 302.6C591.8 303.8 591.5 305.2 591.5 306.9Z" fill="white"/>
<path d="M638 301.899L634 302.999C633.8 302.299 633.4 301.699 632.9 301.099C632.4 300.499 631.8 299.899 631 299.499C630.2 299.099 629.1 298.899 627.9 298.899C626.2 298.899 624.7 299.299 623.5 300.099C622.3 300.899 621.8 301.899 621.8 303.099C621.8 304.199 622.2 305.099 623 305.699C623.8 306.299 625 306.899 626.7 307.299L630.9 308.299C633.5 308.899 635.4 309.899 636.6 311.099C637.9 312.399 638.5 313.999 638.5 315.999C638.5 317.599 638 319.099 637.1 320.399C636.2 321.699 634.9 322.699 633.2 323.499C631.5 324.199 629.6 324.599 627.4 324.599C624.5 324.599 622.1 323.999 620.2 322.699C618.3 321.399 617.1 319.599 616.6 317.199L620.8 316.199C621.2 317.699 621.9 318.899 623.1 319.699C624.2 320.499 625.7 320.899 627.5 320.899C629.5 320.899 631.2 320.499 632.4 319.599C633.6 318.699 634.2 317.699 634.2 316.399C634.2 315.399 633.9 314.599 633.2 313.899C632.5 313.199 631.4 312.699 630 312.399L625.2 311.299C622.6 310.699 620.7 309.699 619.4 308.399C618.2 307.099 617.6 305.399 617.6 303.499C617.6 301.899 618.1 300.499 619 299.199C619.9 297.999 621.2 296.999 622.7 296.299C624.3 295.599 626.1 295.199 628.1 295.199C630.9 295.199 633.1 295.799 634.8 297.099C636.1 298.199 637.3 299.799 638 301.899Z" fill="white"/>
<path d="M657.8 295.5V299.2H642.4V295.5H657.8ZM647 324V291.5C647 289.9 647.4 288.5 648.2 287.4C649 286.3 650 285.5 651.2 284.9C652.4 284.4 653.7 284.1 655.1 284.1C656.2 284.1 657.1 284.2 657.7 284.4C658.4 284.6 658.9 284.7 659.2 284.9L657.9 288.7C657.7 288.6 657.4 288.5 657 288.4C656.6 288.3 656.1 288.2 655.5 288.2C654 288.2 653 288.6 652.4 289.3C651.8 290 651.5 291.1 651.5 292.5V324H647Z" fill="white"/>
<path d="M674.4 324.6C671.8 324.6 669.6 324 667.6 322.8C665.7 321.6 664.2 319.9 663.1 317.6C662 315.4 661.5 312.8 661.5 309.9C661.5 306.9 662 304.3 663.1 302.1C664.2 299.9 665.7 298.2 667.6 296.9C669.5 295.7 671.8 295.1 674.4 295.1C677 295.1 679.2 295.7 681.2 296.9C683.1 298.1 684.7 299.9 685.7 302.1C686.8 304.3 687.3 306.9 687.3 309.9C687.3 312.9 686.8 315.4 685.7 317.6C684.6 319.8 683.1 321.5 681.2 322.8C679.2 324 677 324.6 674.4 324.6ZM674.4 320.7C676.4 320.7 678 320.2 679.2 319.2C680.5 318.2 681.4 316.9 682 315.2C682.6 313.6 682.9 311.8 682.9 309.9C682.9 308 682.6 306.2 682 304.6C681.4 303 680.5 301.6 679.2 300.6C677.9 299.6 676.3 299.1 674.4 299.1C672.4 299.1 670.8 299.6 669.6 300.6C668.4 301.6 667.4 303 666.8 304.6C666.2 306.2 665.9 308 665.9 309.9C665.9 311.8 666.2 313.6 666.8 315.2C667.4 316.8 668.3 318.2 669.6 319.2C670.8 320.2 672.4 320.7 674.4 320.7Z" fill="white"/>
<path d="M694 324V295.4H698.2V299.7H698.5C699 298.3 700 297.1 701.3 296.3C702.7 295.4 704.2 295 705.9 295C706.2 295 706.6 295 707.1 295C707.6 295 708 295 708.2 295.1V299.6C708.1 299.6 707.7 299.5 707.2 299.4C706.7 299.3 706.1 299.3 705.5 299.3C704.1 299.3 702.9 299.6 701.8 300.2C700.7 300.8 699.9 301.6 699.2 302.6C698.6 303.6 698.3 304.8 698.3 306V324H694Z" fill="white"/>
<path d="M713.5 324V295.4H717.7V299.9H718.1C718.7 298.4 719.7 297.2 721 296.3C722.3 295.4 723.9 295 725.8 295C727.7 295 729.3 295.4 730.5 296.3C731.8 297.1 732.8 298.3 733.5 299.9H733.8C734.5 298.4 735.6 297.3 737.1 296.4C738.6 295.5 740.3 295.1 742.4 295.1C745 295.1 747 295.9 748.7 297.5C750.3 299.1 751.1 301.6 751.1 304.9V324H746.7V304.9C746.7 302.8 746.1 301.3 745 300.4C743.8 299.5 742.5 299 740.9 299C738.9 299 737.3 299.6 736.2 300.8C735.1 302 734.5 303.5 734.5 305.4V324H730V304.4C730 302.8 729.5 301.5 728.4 300.5C727.3 299.5 726 299 724.3 299C723.2 299 722.1 299.3 721.1 299.9C720.1 300.5 719.3 301.4 718.7 302.4C718.1 303.5 717.8 304.7 717.8 306.1V324H713.5Z" fill="white"/>
<path d="M767.5 324.7C765.7 324.7 764 324.4 762.6 323.7C761.1 323 760 322 759.1 320.7C758.2 319.4 757.8 317.8 757.8 315.9C757.8 314.3 758.1 312.9 758.8 311.9C759.4 310.9 760.3 310.1 761.4 309.5C762.5 308.9 763.7 308.5 765 308.2C766.3 307.9 767.6 307.7 769 307.5C770.7 307.3 772.1 307.1 773.2 307C774.3 306.9 775.1 306.7 775.6 306.4C776.1 306.1 776.4 305.6 776.4 304.9V304.8C776.4 303 775.9 301.5 774.9 300.5C773.9 299.5 772.4 299 770.4 299C768.3 299 766.7 299.5 765.5 300.4C764.3 301.3 763.5 302.3 763 303.3L758.8 301.8C759.5 300.1 760.5 298.7 761.8 297.7C763.1 296.7 764.4 296 765.9 295.7C767.4 295.3 768.9 295.1 770.3 295.1C771.2 295.1 772.3 295.2 773.5 295.4C774.7 295.6 775.9 296.1 777 296.7C778.1 297.4 779.1 298.4 779.8 299.7C780.5 301.1 780.9 302.9 780.9 305.1V324H776.5V320.1H776C775.7 320.7 775.2 321.4 774.5 322.1C773.8 322.8 772.9 323.4 771.7 323.9C770.5 324.5 769.1 324.7 767.5 324.7ZM768.1 320.8C769.8 320.8 771.3 320.5 772.5 319.8C773.7 319.1 774.6 318.2 775.2 317.2C775.8 316.1 776.1 315 776.1 313.8V309.8C775.9 310 775.5 310.2 774.9 310.4C774.3 310.6 773.6 310.7 772.7 310.9C771.9 311 771.1 311.1 770.3 311.2C769.5 311.3 768.9 311.4 768.5 311.4C767.4 311.5 766.3 311.8 765.3 312.1C764.3 312.4 763.5 312.9 762.9 313.6C762.3 314.2 762 315.1 762 316.2C762 317.7 762.6 318.9 763.7 319.7C765 320.4 766.4 320.8 768.1 320.8Z" fill="white"/>
<path d="M801 295.5V299.2H786.2V295.5H801ZM790.5 288.6H794.9V315.8C794.9 317 795.1 318 795.4 318.6C795.8 319.2 796.2 319.6 796.8 319.8C797.4 320 798 320.1 798.6 320.1C799.1 320.1 799.5 320.1 799.8 320C800.1 319.9 800.4 319.9 800.5 319.9L801.4 323.8C801.1 323.9 800.7 324 800.2 324.1C799.7 324.2 799 324.3 798.2 324.3C797 324.3 795.7 324 794.6 323.5C793.4 323 792.4 322.2 791.7 321.1C790.9 320 790.5 318.6 790.5 317V288.6Z" fill="white"/>
<path d="M807.6 323.999V295.399H812V323.999H807.6ZM809.8 290.699C808.9 290.699 808.2 290.399 807.6 289.799C807 289.199 806.7 288.499 806.7 287.699C806.7 286.899 807 286.199 807.6 285.599C808.2 284.999 809 284.699 809.8 284.699C810.7 284.699 811.4 284.999 812 285.599C812.6 286.199 812.9 286.899 812.9 287.699C812.9 288.499 812.6 289.199 812 289.799C811.4 290.399 810.7 290.699 809.8 290.699Z" fill="white"/>
<path d="M831.7 324.6C829.1 324.6 826.9 324 824.9 322.8C823 321.6 821.5 319.9 820.4 317.6C819.3 315.4 818.8 312.8 818.8 309.9C818.8 306.9 819.3 304.3 820.4 302.1C821.5 299.9 823 298.2 824.9 296.9C826.8 295.7 829.1 295.1 831.7 295.1C834.3 295.1 836.5 295.7 838.5 296.9C840.4 298.1 842 299.9 843 302.1C844.1 304.3 844.6 306.9 844.6 309.9C844.6 312.9 844.1 315.4 843 317.6C841.9 319.8 840.4 321.5 838.5 322.8C836.5 324 834.2 324.6 831.7 324.6ZM831.7 320.7C833.7 320.7 835.3 320.2 836.5 319.2C837.8 318.2 838.7 316.9 839.3 315.2C839.9 313.6 840.2 311.8 840.2 309.9C840.2 308 839.9 306.2 839.3 304.6C838.7 303 837.8 301.6 836.5 300.6C835.2 299.6 833.6 299.1 831.7 299.1C829.7 299.1 828.1 299.6 826.9 300.6C825.6 301.6 824.7 303 824.1 304.6C823.5 306.2 823.2 308 823.2 309.9C823.2 311.8 823.5 313.6 824.1 315.2C824.7 316.8 825.6 318.2 826.9 319.2C828.1 320.2 829.7 320.7 831.7 320.7Z" fill="white"/>
<path d="M855.7 306.9V324H851.3V295.4H855.5V299.9H855.9C856.6 298.4 857.6 297.3 859 296.4C860.4 295.5 862.1 295.1 864.3 295.1C866.2 295.1 867.9 295.5 869.4 296.3C870.9 297.1 872 298.3 872.8 299.9C873.6 301.5 874 303.5 874 305.9V324H869.6V306.1C869.6 303.9 869 302.1 867.9 300.9C866.7 299.6 865.1 299 863.1 299C861.7 299 860.4 299.3 859.3 299.9C858.2 300.5 857.3 301.4 856.7 302.6C856 303.8 855.7 305.2 855.7 306.9Z" fill="white"/>
<path d="M907.5 324.6C905 324.6 902.8 324.1 901 323.2C899.2 322.3 897.8 321 896.8 319.4C895.8 317.8 895.3 316 895.3 313.9C895.3 312.3 895.6 310.9 896.3 309.7C897 308.5 897.9 307.3 899.1 306.3C900.3 305.2 901.7 304.2 903.2 303.1L908.7 299C909.8 298.3 910.6 297.5 911.3 296.7C912 295.9 912.3 294.8 912.3 293.5C912.3 292.5 911.9 291.6 911 290.7C910.2 289.8 909 289.3 907.7 289.3C906.7 289.3 905.9 289.5 905.1 290C904.4 290.5 903.8 291.1 903.4 291.9C903 292.6 902.8 293.4 902.8 294.2C902.8 295.1 903 296 903.5 296.9C904 297.8 904.6 298.7 905.4 299.7C906.2 300.6 907 301.6 907.8 302.6L925.3 324H920L905.6 306.6C904.3 305 903 303.5 902 302.2C900.9 300.9 900 299.6 899.4 298.3C898.8 297 898.4 295.6 898.4 294.2C898.4 292.5 898.8 291 899.5 289.7C900.3 288.4 901.3 287.4 902.7 286.7C904.1 286 905.7 285.6 907.6 285.6C909.5 285.6 911.2 286 912.5 286.7C913.9 287.4 914.9 288.4 915.7 289.6C916.4 290.8 916.8 292.1 916.8 293.5C916.8 295.3 916.3 296.9 915.4 298.2C914.5 299.5 913.3 300.8 911.7 301.9L904.1 307.6C902.4 308.9 901.2 310.1 900.6 311.3C900 312.5 899.7 313.3 899.7 313.9C899.7 315.1 900 316.2 900.6 317.2C901.2 318.2 902.1 319.1 903.2 319.7C904.3 320.3 905.6 320.6 907.2 320.6C908.6 320.6 910 320.3 911.4 319.7C912.8 319.1 914 318.2 915.1 317C916.2 315.8 917.1 314.4 917.7 312.8C918.4 311.2 918.7 309.3 918.7 307.3H922.9C922.9 309.8 922.6 311.9 922 313.5C921.4 315.1 920.8 316.4 920 317.3C919.2 318.2 918.7 318.9 918.2 319.3C918.1 319.5 917.9 319.7 917.8 319.9C917.7 320.1 917.5 320.3 917.4 320.5C916.2 321.9 914.6 322.9 912.7 323.6C911.1 324.2 909.3 324.6 907.5 324.6Z" fill="white"/>
<path d="M966.4 295.499C966.2 293.599 965.3 292.199 963.7 291.099C962.1 290.099 960.2 289.499 957.9 289.499C956.2 289.499 954.7 289.799 953.5 290.299C952.2 290.799 951.3 291.599 950.6 292.599C949.9 293.599 949.6 294.599 949.6 295.899C949.6 296.899 949.8 297.799 950.3 298.499C950.8 299.199 951.4 299.799 952.2 300.299C953 300.799 953.8 301.199 954.6 301.499C955.4 301.799 956.2 301.999 956.9 302.199L960.8 303.199C961.8 303.499 962.9 303.799 964.1 304.299C965.3 304.799 966.5 305.399 967.6 306.199C968.7 306.999 969.7 307.999 970.4 309.199C971.1 310.399 971.5 311.899 971.5 313.699C971.5 315.799 971 317.599 969.9 319.299C968.8 320.999 967.3 322.299 965.2 323.299C963.2 324.299 960.7 324.799 957.7 324.799C955 324.799 952.6 324.399 950.6 323.499C948.6 322.599 947.1 321.399 945.9 319.799C944.8 318.199 944.1 316.399 944 314.299H948.8C948.9 315.699 949.4 316.899 950.3 317.899C951.2 318.799 952.2 319.499 953.5 319.999C954.8 320.399 956.2 320.699 957.7 320.699C959.5 320.699 961 320.399 962.4 319.799C963.8 319.199 964.9 318.399 965.7 317.399C966.5 316.399 966.9 315.099 966.9 313.799C966.9 312.499 966.5 311.499 965.8 310.699C965.1 309.899 964.2 309.299 963 308.799C961.8 308.299 960.6 307.899 959.3 307.499L954.6 306.199C951.6 305.299 949.3 304.099 947.5 302.499C945.8 300.899 944.9 298.799 944.9 296.299C944.9 294.199 945.5 292.299 946.6 290.699C947.8 289.099 949.3 287.899 951.3 286.999C953.3 286.099 955.5 285.699 957.9 285.699C960.4 285.699 962.5 286.099 964.4 286.999C966.3 287.899 967.8 289.099 968.9 290.599C970 292.099 970.6 293.799 970.7 295.799H966.4V295.499Z" fill="white"/>
<path d="M989.9 324.6C987.3 324.6 985.1 324 983.1 322.8C981.2 321.6 979.7 319.9 978.6 317.6C977.5 315.4 977 312.8 977 309.9C977 306.9 977.5 304.3 978.6 302.1C979.7 299.9 981.2 298.2 983.1 296.9C985 295.7 987.3 295.1 989.9 295.1C992.5 295.1 994.7 295.7 996.7 296.9C998.6 298.1 1000.2 299.9 1001.2 302.1C1002.3 304.3 1002.8 306.9 1002.8 309.9C1002.8 312.9 1002.3 315.4 1001.2 317.6C1000.1 319.8 998.6 321.5 996.7 322.8C994.8 324 992.5 324.6 989.9 324.6ZM989.9 320.7C991.9 320.7 993.5 320.2 994.7 319.2C996 318.2 996.9 316.9 997.5 315.2C998.1 313.6 998.4 311.8 998.4 309.9C998.4 308 998.1 306.2 997.5 304.6C996.9 303 996 301.6 994.7 300.6C993.4 299.6 991.8 299.1 989.9 299.1C987.9 299.1 986.3 299.6 985.1 300.6C983.9 301.6 982.9 303 982.3 304.6C981.7 306.2 981.4 308 981.4 309.9C981.4 311.8 981.7 313.6 982.3 315.2C982.9 316.8 983.8 318.2 985.1 319.2C986.4 320.2 988 320.7 989.9 320.7Z" fill="white"/>
<path d="M1022.3 295.5V299.2H1006.9V295.5H1022.3ZM1011.5 324V291.5C1011.5 289.9 1011.9 288.5 1012.7 287.4C1013.5 286.3 1014.5 285.5 1015.7 284.9C1016.9 284.4 1018.2 284.1 1019.6 284.1C1020.7 284.1 1021.6 284.2 1022.2 284.4C1022.9 284.6 1023.4 284.7 1023.7 284.9L1022.4 288.7C1022.2 288.6 1021.9 288.5 1021.5 288.4C1021.1 288.3 1020.6 288.2 1020 288.2C1018.5 288.2 1017.5 288.6 1016.8 289.3C1016.2 290 1015.8 291.1 1015.8 292.5V324H1011.5Z" fill="white"/>
<path d="M1040.9 295.5V299.2H1026.1V295.5H1040.9ZM1030.4 288.6H1034.8V315.8C1034.8 317 1035 318 1035.3 318.6C1035.7 319.2 1036.1 319.6 1036.7 319.8C1037.3 320 1037.9 320.1 1038.5 320.1C1039 320.1 1039.4 320.1 1039.7 320C1040 319.9 1040.2 319.9 1040.4 319.9L1041.3 323.8C1041 323.9 1040.6 324 1040.1 324.1C1039.6 324.2 1038.9 324.3 1038.1 324.3C1036.9 324.3 1035.6 324 1034.4 323.5C1033.2 323 1032.2 322.2 1031.5 321.1C1030.7 320 1030.3 318.6 1030.3 317V288.6H1030.4Z" fill="white"/>
<path d="M1054 324L1045.3 295.4H1049.9L1056.1 317.3H1056.4L1062.5 295.4H1067.2L1073.2 317.2H1073.5L1079.7 295.4H1084.3L1075.6 324H1071.3L1065 302H1064.6L1058.3 324H1054Z" fill="white"/>
<path d="M1098.5 324.7C1096.7 324.7 1095 324.4 1093.6 323.7C1092.1 323 1090.9 322 1090.1 320.7C1089.2 319.4 1088.8 317.8 1088.8 315.9C1088.8 314.3 1089.1 312.9 1089.8 311.9C1090.4 310.9 1091.3 310.1 1092.4 309.5C1093.5 308.9 1094.7 308.5 1096 308.2C1097.3 307.9 1098.6 307.7 1100 307.5C1101.7 307.3 1103.1 307.1 1104.2 307C1105.3 306.9 1106.1 306.7 1106.6 306.4C1107.1 306.1 1107.4 305.6 1107.4 304.9V304.8C1107.4 303 1106.9 301.5 1105.9 300.5C1104.9 299.5 1103.4 299 1101.4 299C1099.3 299 1097.7 299.5 1096.5 300.4C1095.3 301.3 1094.5 302.3 1094 303.3L1089.8 301.8C1090.5 300.1 1091.5 298.7 1092.8 297.7C1094.1 296.7 1095.4 296 1096.9 295.7C1098.4 295.3 1099.9 295.1 1101.3 295.1C1102.2 295.1 1103.3 295.2 1104.5 295.4C1105.7 295.6 1106.9 296.1 1108 296.7C1109.1 297.4 1110.1 298.4 1110.8 299.7C1111.5 301.1 1111.9 302.9 1111.9 305.1V324H1107.5V320.1H1107.3C1107 320.7 1106.5 321.4 1105.8 322.1C1105.1 322.8 1104.2 323.4 1103 323.9C1101.5 324.5 1100.1 324.7 1098.5 324.7ZM1099.1 320.8C1100.8 320.8 1102.3 320.5 1103.5 319.8C1104.7 319.1 1105.6 318.2 1106.2 317.2C1106.8 316.1 1107.1 315 1107.1 313.8V309.8C1106.9 310 1106.5 310.2 1105.9 310.4C1105.3 310.6 1104.6 310.7 1103.7 310.9C1102.9 311 1102.1 311.1 1101.3 311.2C1100.5 311.3 1099.9 311.4 1099.4 311.4C1098.3 311.5 1097.2 311.8 1096.2 312.1C1095.2 312.4 1094.4 312.9 1093.8 313.6C1093.2 314.2 1092.9 315.1 1092.9 316.2C1092.9 317.7 1093.5 318.9 1094.6 319.7C1095.9 320.4 1097.4 320.8 1099.1 320.8Z" fill="white"/>
<path d="M1119.6 324V295.4H1123.8V299.7H1124.1C1124.6 298.3 1125.6 297.1 1126.9 296.3C1128.3 295.4 1129.8 295 1131.5 295C1131.8 295 1132.2 295 1132.7 295C1133.2 295 1133.5 295 1133.8 295.1V299.6C1133.7 299.6 1133.3 299.5 1132.8 299.4C1132.3 299.3 1131.7 299.3 1131.1 299.3C1129.7 299.3 1128.5 299.6 1127.4 300.2C1126.3 300.8 1125.5 301.6 1124.8 302.6C1124.2 303.6 1123.9 304.8 1123.9 306V324H1119.6Z" fill="white"/>
<path d="M1150.2 324.599C1147.4 324.599 1145.1 323.999 1143.1 322.799C1141.1 321.599 1139.6 319.899 1138.5 317.699C1137.4 315.499 1136.9 312.899 1136.9 309.999C1136.9 307.099 1137.4 304.499 1138.5 302.299C1139.6 300.099 1141.1 298.299 1143 297.099C1144.9 295.799 1147.2 295.199 1149.8 295.199C1151.3 295.199 1152.8 295.399 1154.2 295.899C1155.6 296.399 1157 297.199 1158.2 298.299C1159.4 299.399 1160.3 300.899 1161 302.699C1161.7 304.499 1162.1 306.799 1162.1 309.399V311.299H1140.1V307.499H1157.7C1157.7 305.899 1157.4 304.399 1156.7 303.199C1156.1 301.899 1155.2 300.899 1154 300.199C1152.8 299.499 1151.5 299.099 1149.9 299.099C1148.1 299.099 1146.6 299.499 1145.4 300.399C1144.1 301.299 1143.2 302.399 1142.5 303.699C1141.8 305.099 1141.5 306.599 1141.5 308.099V310.599C1141.5 312.799 1141.9 314.599 1142.6 316.099C1143.4 317.599 1144.4 318.699 1145.7 319.499C1147 320.299 1148.6 320.699 1150.4 320.699C1151.5 320.699 1152.6 320.499 1153.5 320.199C1154.4 319.899 1155.3 319.399 1155.9 318.699C1156.6 317.999 1157.1 317.199 1157.5 316.199L1161.7 317.399C1161.3 318.799 1160.5 320.099 1159.4 321.199C1158.3 322.299 1157 323.099 1155.5 323.699C1153.9 324.299 1152.1 324.599 1150.2 324.599Z" fill="white"/>
<path d="M1194.2 324.6C1191.8 324.6 1189.7 324 1187.9 322.8C1186.1 321.6 1184.6 319.9 1183.6 317.7C1182.6 315.5 1182 312.9 1182 309.8C1182 306.8 1182.5 304.2 1183.6 302C1184.6 299.8 1186.1 298.1 1187.9 296.9C1189.7 295.7 1191.9 295.1 1194.3 295.1C1196.2 295.1 1197.6 295.4 1198.7 296C1199.8 296.6 1200.6 297.3 1201.2 298.1C1201.8 298.9 1202.2 299.5 1202.6 300H1203V285.9H1207.4V324H1203.2V319.6H1202.7C1202.4 320.1 1201.9 320.8 1201.3 321.6C1200.7 322.4 1199.8 323.1 1198.7 323.7C1197.5 324.3 1196.1 324.6 1194.2 324.6ZM1194.8 320.7C1196.6 320.7 1198.1 320.2 1199.3 319.3C1200.5 318.4 1201.4 317.1 1202.1 315.4C1202.7 313.8 1203 311.8 1203 309.7C1203 307.6 1202.7 305.7 1202.1 304.1C1201.5 302.5 1200.6 301.2 1199.3 300.3C1198.1 299.4 1196.6 298.9 1194.8 298.9C1192.9 298.9 1191.4 299.4 1190.1 300.3C1188.9 301.2 1187.9 302.5 1187.3 304.2C1186.7 305.8 1186.4 307.6 1186.4 309.6C1186.4 311.6 1186.7 313.5 1187.3 315.1C1187.9 316.7 1188.9 318.1 1190.1 319C1191.4 320.2 1193 320.7 1194.8 320.7Z" fill="white"/>
<path d="M1227.9 324.599C1225.1 324.599 1222.8 323.999 1220.8 322.799C1218.8 321.599 1217.3 319.899 1216.2 317.699C1215.1 315.499 1214.6 312.899 1214.6 309.999C1214.6 307.099 1215.1 304.499 1216.2 302.299C1217.3 300.099 1218.8 298.299 1220.7 297.099C1222.6 295.799 1224.9 295.199 1227.5 295.199C1229 295.199 1230.5 295.399 1231.9 295.899C1233.3 296.399 1234.7 297.199 1235.9 298.299C1237.1 299.399 1238 300.899 1238.7 302.699C1239.4 304.499 1239.8 306.799 1239.8 309.399V311.299H1217.8V307.499H1235.4C1235.4 305.899 1235.1 304.399 1234.4 303.199C1233.8 301.899 1232.9 300.899 1231.7 300.199C1230.5 299.499 1229.2 299.099 1227.6 299.099C1225.8 299.099 1224.3 299.499 1223.1 300.399C1221.8 301.299 1220.9 302.399 1220.2 303.699C1219.5 305.099 1219.2 306.599 1219.2 308.099V310.599C1219.2 312.799 1219.6 314.599 1220.3 316.099C1221.1 317.599 1222.1 318.699 1223.4 319.499C1224.7 320.299 1226.3 320.699 1228.1 320.699C1229.3 320.699 1230.3 320.499 1231.2 320.199C1232.1 319.899 1233 319.399 1233.6 318.699C1234.3 317.999 1234.8 317.199 1235.2 316.199L1239.4 317.399C1239 318.799 1238.2 320.099 1237.1 321.199C1236.1 322.299 1234.8 323.099 1233.2 323.699C1231.6 324.299 1229.9 324.599 1227.9 324.599Z" fill="white"/>
<path d="M1268.9 295.5L1258.3 324.1H1253.8L1243.2 295.5H1248L1255.9 318.3H1256.2L1264.1 295.5H1268.9Z" fill="white"/>
<path d="M1285.7 324.599C1282.9 324.599 1280.6 323.999 1278.6 322.799C1276.6 321.599 1275.1 319.899 1274 317.699C1272.9 315.499 1272.4 312.899 1272.4 309.999C1272.4 307.099 1272.9 304.499 1274 302.299C1275.1 300.099 1276.6 298.299 1278.5 297.099C1280.4 295.799 1282.7 295.199 1285.3 295.199C1286.8 295.199 1288.3 295.399 1289.7 295.899C1291.1 296.399 1292.5 297.199 1293.7 298.299C1294.9 299.399 1295.8 300.899 1296.5 302.699C1297.2 304.499 1297.6 306.799 1297.6 309.399V311.299H1275.6V307.499H1293.2C1293.2 305.899 1292.9 304.399 1292.2 303.199C1291.6 301.899 1290.7 300.899 1289.5 300.199C1288.3 299.499 1287 299.099 1285.4 299.099C1283.6 299.099 1282.1 299.499 1280.9 300.399C1279.6 301.299 1278.7 302.399 1278 303.699C1277.3 305.099 1277 306.599 1277 308.099V310.599C1277 312.799 1277.4 314.599 1278.1 316.099C1278.9 317.599 1279.9 318.699 1281.3 319.499C1282.6 320.299 1284.2 320.699 1286 320.699C1287.2 320.699 1288.2 320.499 1289.1 320.199C1290 319.899 1290.9 319.399 1291.5 318.699C1292.2 317.999 1292.7 317.199 1293.1 316.199L1297.3 317.399C1296.9 318.799 1296.1 320.099 1295 321.199C1294 322.299 1292.6 323.099 1291.1 323.699C1289.4 324.299 1287.6 324.599 1285.7 324.599Z" fill="white"/>
<path d="M1308.6 285.9V324H1304.2V285.9H1308.6Z" fill="white"/>
<path d="M1328.3 324.6C1325.7 324.6 1323.5 324 1321.5 322.8C1319.6 321.6 1318.1 319.9 1317 317.6C1315.9 315.4 1315.4 312.8 1315.4 309.9C1315.4 306.9 1315.9 304.3 1317 302.1C1318.1 299.9 1319.6 298.2 1321.5 296.9C1323.4 295.7 1325.7 295.1 1328.3 295.1C1330.9 295.1 1333.1 295.7 1335.1 296.9C1337 298.1 1338.6 299.9 1339.6 302.1C1340.7 304.3 1341.2 306.9 1341.2 309.9C1341.2 312.9 1340.7 315.4 1339.6 317.6C1338.5 319.8 1337 321.5 1335.1 322.8C1333.1 324 1330.8 324.6 1328.3 324.6ZM1328.3 320.7C1330.3 320.7 1331.9 320.2 1333.1 319.2C1334.4 318.2 1335.3 316.9 1335.9 315.2C1336.5 313.5 1336.8 311.8 1336.8 309.9C1336.8 308 1336.5 306.2 1335.9 304.6C1335.3 303 1334.4 301.6 1333.1 300.6C1331.8 299.6 1330.2 299.1 1328.3 299.1C1326.4 299.1 1324.7 299.6 1323.5 300.6C1322.2 301.6 1321.3 303 1320.7 304.6C1320.1 306.2 1319.8 308 1319.8 309.9C1319.8 311.8 1320.1 313.6 1320.7 315.2C1321.3 316.8 1322.2 318.2 1323.5 319.2C1324.7 320.2 1326.3 320.7 1328.3 320.7Z" fill="white"/>
<path d="M1347.9 334.8V295.5H1352.2V300H1352.7C1353 299.5 1353.5 298.9 1354 298.1C1354.6 297.3 1355.4 296.6 1356.5 296C1357.6 295.4 1359.1 295.1 1360.9 295.1C1363.3 295.1 1365.4 295.7 1367.3 296.9C1369.1 298.1 1370.6 299.8 1371.6 302C1372.6 304.2 1373.1 306.8 1373.1 309.8C1373.1 312.8 1372.6 315.4 1371.6 317.7C1370.6 319.9 1369.1 321.6 1367.3 322.8C1365.5 324 1363.4 324.6 1361 324.6C1359.2 324.6 1357.7 324.3 1356.6 323.7C1355.5 323.1 1354.7 322.4 1354.1 321.6C1353.5 320.8 1353 320.1 1352.7 319.6H1352.3V334.7H1347.9V334.8ZM1352.2 309.8C1352.2 312 1352.5 313.9 1353.2 315.5C1353.8 317.1 1354.8 318.4 1356 319.4C1357.2 320.3 1358.7 320.8 1360.5 320.8C1362.3 320.8 1363.9 320.3 1365.1 319.3C1366.3 318.3 1367.3 317 1367.9 315.4C1368.5 313.7 1368.8 311.9 1368.8 309.9C1368.8 307.9 1368.5 306.1 1367.9 304.5C1367.3 302.9 1366.4 301.6 1365.1 300.6C1363.9 299.6 1362.3 299.2 1360.5 299.2C1358.7 299.2 1357.2 299.7 1356 300.6C1354.8 301.5 1353.9 302.7 1353.2 304.4C1352.5 305.8 1352.2 307.6 1352.2 309.8Z" fill="white"/>
<path d="M1379.8 324V295.4H1384V299.9H1384.4C1385 298.4 1386 297.2 1387.3 296.3C1388.6 295.4 1390.2 295 1392.1 295C1394 295 1395.6 295.4 1396.8 296.3C1398.1 297.1 1399.1 298.3 1399.8 299.9H1400.1C1400.8 298.4 1401.9 297.3 1403.4 296.4C1404.9 295.5 1406.6 295.1 1408.7 295.1C1411.3 295.1 1413.4 295.9 1415 297.5C1416.6 299.1 1417.4 301.6 1417.4 304.9V324H1413V304.9C1413 302.8 1412.4 301.3 1411.3 300.4C1410.2 299.5 1408.8 299 1407.2 299C1405.2 299 1403.6 299.6 1402.5 300.8C1401.4 302 1400.8 303.5 1400.8 305.4V324H1396.3V304.4C1396.3 302.8 1395.8 301.5 1394.7 300.5C1393.6 299.5 1392.3 299 1390.6 299C1389.5 299 1388.4 299.3 1387.4 299.9C1386.4 300.5 1385.6 301.4 1385 302.4C1384.4 303.5 1384.1 304.7 1384.1 306.1V324H1379.8Z" fill="white"/>
<path d="M1437.3 324.599C1434.5 324.599 1432.2 323.999 1430.2 322.799C1428.2 321.599 1426.7 319.899 1425.6 317.699C1424.5 315.499 1424 312.899 1424 309.999C1424 307.099 1424.5 304.499 1425.6 302.299C1426.7 300.099 1428.2 298.299 1430.1 297.099C1432 295.799 1434.3 295.199 1436.9 295.199C1438.4 295.199 1439.9 295.399 1441.3 295.899C1442.7 296.399 1444.1 297.199 1445.3 298.299C1446.5 299.399 1447.4 300.899 1448.1 302.699C1448.8 304.499 1449.2 306.799 1449.2 309.399V311.299H1427.2V307.499H1444.8C1444.8 305.899 1444.5 304.399 1443.8 303.199C1443.2 301.899 1442.3 300.899 1441.1 300.199C1439.9 299.499 1438.6 299.099 1437 299.099C1435.2 299.099 1433.7 299.499 1432.5 300.399C1431.2 301.299 1430.3 302.399 1429.6 303.699C1428.9 305.099 1428.6 306.599 1428.6 308.099V310.599C1428.6 312.799 1429 314.599 1429.7 316.099C1430.5 317.599 1431.5 318.699 1432.9 319.499C1434.2 320.299 1435.8 320.699 1437.6 320.699C1438.8 320.699 1439.8 320.499 1440.7 320.199C1441.7 319.899 1442.5 319.399 1443.1 318.699C1443.8 317.999 1444.3 317.199 1444.7 316.199L1448.9 317.399C1448.5 318.799 1447.7 320.099 1446.6 321.199C1445.6 322.299 1444.3 323.099 1442.7 323.699C1441 324.299 1439.3 324.599 1437.3 324.599Z" fill="white"/>
<path d="M1460.2 306.9V324H1455.8V295.4H1460V299.9H1460.4C1461.1 298.4 1462.1 297.3 1463.5 296.4C1464.9 295.5 1466.6 295.1 1468.8 295.1C1470.7 295.1 1472.4 295.5 1473.9 296.3C1475.4 297.1 1476.5 298.3 1477.3 299.9C1478.1 301.5 1478.5 303.5 1478.5 305.9V324H1474.1V306.1C1474.1 303.9 1473.5 302.1 1472.3 300.9C1471.1 299.6 1469.5 299 1467.5 299C1466.1 299 1464.8 299.3 1463.7 299.9C1462.6 300.5 1461.8 301.4 1461.1 302.6C1460.5 303.8 1460.2 305.2 1460.2 306.9Z" fill="white"/>
<path d="M1498.9 295.5V299.2H1484.1V295.5H1498.9ZM1488.4 288.6H1492.8V315.8C1492.8 317 1493 318 1493.3 318.6C1493.7 319.2 1494.1 319.6 1494.7 319.8C1495.3 320 1495.9 320.1 1496.5 320.1C1497 320.1 1497.4 320.1 1497.7 320C1498 319.9 1498.3 319.9 1498.5 319.9L1499.4 323.8C1499.1 323.9 1498.7 324 1498.1 324.1C1497.6 324.2 1496.9 324.3 1496.1 324.3C1494.8 324.3 1493.6 324 1492.4 323.5C1491.2 323 1490.2 322.2 1489.5 321.1C1488.7 320 1488.4 318.6 1488.4 317V288.6Z" fill="white"/>
<path fill-rule="evenodd" clip-rule="evenodd" d="M158.9 0L185.6 54.5L119.7 189.3L53.7004 324H0.400391L79.7004 162L158.9 0Z" fill="white"/>
<path fill-rule="evenodd" clip-rule="evenodd" d="M196.5 76.6992L257 200.399L317.5 323.999H196.5H167.7L194.2 269.799H196.5H228.7L212.6 236.899L211.4 234.599L196.5 203.999L180.4 236.899L168.1 261.999L137.7 323.999H75.4004L136 200.399L196.5 76.6992Z" fill="white"/>
</g>
<defs>
<clipPath id="clip0_3865_11706">
<rect width="1501" height="336" fill="white"/>
</clipPath>
</defs>
</svg>
